<svg width="100" height="100" viewBox="0 0 100 100" fill="none" xmlns="http://www.w3.org/2000/svg">
<path d="M41.75 3C31.1345 3 22.5 11.2517 22.5 21.3966C22.5 26.942 25.0918 31.9099 29.165 35.2854C23.1208 38.3915 19 44.4942 19 51.5C19 57.7235 22.2608 63.2211 27.2236 66.5517C22.2608 69.8823 19 75.38 19 81.6034C19 91.7483 27.6345 100 38.25 100C48.8655 100 57.5 91.7483 57.5 81.6034V63.2069V39.7931H69.75C80.3655 39.7931 89 31.5414 89 21.3966C89 11.2517 80.3655 3 69.75 3H41.75ZM41.75 9.68966H69.75C76.505 9.68966 82 14.941 82 21.3966C82 27.8521 76.505 33.1034 69.75 33.1034H57.5H41.75C34.995 33.1034 29.5 27.8521 29.5 21.3966C29.5 14.941 34.995 9.68966 41.75 9.68966ZM38.25 39.7931H41.75H50.5V63.2069H38.25C31.495 63.2069 26 57.9555 26 51.5C26 45.0445 31.495 39.7931 38.25 39.7931ZM71.5 39.7931C67.787 39.7931 64.226 41.2027 61.6005 43.7118C58.975 46.2209 57.5 49.624 57.5 53.1724C57.5 56.7208 58.975 60.1239 61.6005 62.633C64.226 65.1421 67.787 66.5517 71.5 66.5517C75.213 66.5517 78.774 65.1421 81.3995 62.633C84.025 60.1239 85.5 56.7208 85.5 53.1724C85.5 49.624 84.025 46.2209 81.3995 43.7118C78.774 41.2027 75.213 39.7931 71.5 39.7931V39.7931ZM38.25 69.8966H50.5V81.6034C50.5 88.059 45.005 93.3103 38.25 93.3103C31.495 93.3103 26 88.059 26 81.6034C26 75.1479 31.495 69.8966 38.25 69.8966Z" fill="black"/>
</svg>
