<svg width="100" height="100" viewBox="0 0 100 100" fill="none" xmlns="http://www.w3.org/2000/svg">
<path d="M15.9768 44.0286C12.6776 45.3676 3.94564 51.3951 2.26383 53.181C0.517246 54.9669 -6.12012e-05 52.1766 1.81099 47.5445C3.23367 43.8053 6.8564 38.7266 12.9364 34.3737C16.4938 31.8623 24.3207 28.2349 29.107 26.1139C30.0774 25.6673 42.6259 21.0911 53.8161 18.803C54.7866 18.5797 52.6519 20.1982 52.3283 21.0911C50.6465 25.3325 17.0758 43.5261 17.0758 43.5261L15.9768 44.0286ZM63.2597 95.2048C63.8418 98.2184 63.3245 98.4417 59.7024 98.8324C56.08 99.2231 53.428 98.051 52.4579 97.2699C51.4874 96.4882 51.2937 94.7584 52.2639 93.1959C52.8463 92.1911 53.4284 91.8563 53.7519 90.6286C54.0752 89.4567 54.334 89.1775 54.5925 88.7312C54.851 88.3402 54.9161 87.9495 54.9806 85.215C55.0454 82.4806 54.9806 77.346 55.3042 75.1697C55.6278 72.9375 66.818 76.1741 66.818 76.1741C66.818 76.1741 64.1657 81.8666 63.4544 83.2618C62.7427 84.6572 62.8075 87.3357 62.8075 87.8939C62.8075 88.452 62.549 89.5679 62.3547 89.6238C62.1607 89.6795 63.0016 91.1305 62.6132 91.9678C62.3544 92.7493 63.1953 94.7584 63.2597 95.2048V95.2048ZM67.529 9.87363C67.1406 7.75293 67.529 3.56689 68.0463 2.89753C69.6637 0.999859 78.2016 0.77683 80.013 3.00904C80.7891 4.01349 80.7243 6.35749 80.5951 7.86445C80.4658 9.37113 80.013 12.6081 79.9482 13.6687C79.8837 14.4501 70.5046 15.6776 68.4347 13.5569C67.8523 12.9991 67.529 9.87363 67.529 9.87363V9.87363ZM86.5459 89.7912C90.4916 92.247 93.5316 92.6934 95.5367 93.5863C97.5417 94.4795 97.0244 96.2095 93.6608 96.7117C90.9441 97.1581 86.6751 96.2651 83.8291 96.2651C80.9831 96.2651 74.644 96.5443 72.9622 95.5399C71.0219 94.368 71.8625 92.1911 71.8625 92.1911C72.3801 90.9637 73.6735 88.2287 73.2855 85.9965C72.8974 83.7642 72.3798 82.5365 71.4096 80.4714C70.4395 78.4066 69.7281 73.3282 70.6338 73.049C71.5395 72.7698 71.2804 73.049 72.4449 73.272C73.6091 73.495 74.9028 73.8301 77.4255 73.8301C79.9482 73.8301 82.7294 73.495 83.6999 73.3279C84.67 73.1605 85.4461 72.9928 85.1225 74.7231C84.7993 76.4531 83.8291 79.69 83.7643 82.2014C83.6999 84.7128 83.6999 87.6149 83.8939 88.1172C84.0876 88.6194 85.5109 89.1775 86.5459 89.7912V89.7912Z" fill="#010101"/>
<path d="M72.7038 15.4546C65.5888 20.7566 51.8111 22.2074 31.3716 29.0161C26.1322 30.7461 12.1607 35.9363 8.79712 41.3498C20.1166 35.7133 24.3211 43.4705 25.2265 51.4511C26.0671 58.9294 30.4011 62.8363 41.5266 62.6127C52.9756 62.3897 56.4685 68.1377 59.6377 74.8908C65.7825 49.0512 75.6146 44.0286 81.9531 39.6198C95.4075 30.188 78.8486 13.5569 72.7038 15.4546Z" fill="#8AC640"/>
<path d="M72.7037 15.4546C55.6275 20.5889 38.745 21.8726 18.8876 32.4204C14.1658 34.9318 4.20453 40.624 2.26392 51.507C9.50812 44.5865 26.2611 35.8807 46.7657 30.3556C57.115 27.565 64.6831 25.7235 73.8679 22.654C73.2214 19.082 73.2214 17.6868 72.7037 15.4546V15.4546Z" fill="#8AC640"/>
<path d="M94.5018 46.0375C94.5018 46.0375 93.2729 49.6651 90.8149 50.8373C90.8149 50.8373 89.0039 51.3954 85.3818 49.6654C84.3468 49.1632 83.5707 47.4332 83.6352 46.8748C83.7 45.5353 84.6701 44.9215 84.6701 44.9215C84.6701 44.9215 85.7054 43.4146 86.934 43.4705C88.1633 43.5261 90.2332 43.6935 90.88 43.1913C91.4618 42.6331 94.6314 44.1957 94.5018 46.0375V46.0375ZM68.1112 10.934C68.1112 10.934 67.8527 13.7805 67.3998 15.5661C67.3351 15.9012 65.3947 16.0683 63.9714 16.5708C66.6882 23.2677 83.0531 23.2118 85.1877 19.9192C84.1528 19.3055 82.0829 18.3567 81.1128 18.0219C80.1423 17.6868 80.2071 17.7427 80.1423 16.1801C80.0779 14.6172 79.9483 11.7154 79.8187 10.934C79.6895 10.1525 69.6634 10.1525 68.1112 10.934Z" fill="#010101"/>
<path d="M68.7581 10.934C68.7581 10.934 68.7581 12.5525 68.5641 14.115C68.4996 14.8406 68.4348 15.2869 68.3056 15.845C68.2408 16.1801 70.5047 17.5191 71.1515 20.4771C74.2563 26.4485 81.4364 23.4908 84.4116 20.6445C83.3767 20.0305 81.6949 19.1935 79.7546 18.5238C78.7841 18.1887 79.237 17.4635 79.1725 15.9009C79.1077 14.3383 78.8489 12.05 78.7197 11.2129C78.5898 10.3759 70.3106 10.1526 68.7581 10.934V10.934Z" fill="#F0EFEF"/>
<path d="M68.1112 10.934C68.1112 10.934 68.0464 11.9387 67.8527 13.1106C68.6932 13.8358 69.793 14.8405 70.6342 15.4546C71.2163 15.9012 72.639 15.8453 73.933 15.8453C75.0972 15.8453 76.1321 15.9568 76.585 15.7337C77.6202 15.2871 79.1077 14.1712 79.9486 13.3339C79.8841 12.3294 79.8194 11.3806 79.7549 10.934C79.6895 10.1525 69.6634 10.1525 68.1112 10.934V10.934Z" fill="#010101"/>
<path d="M73.9975 15.1754C73.221 15.1754 72.3154 15.1198 71.604 15.008C71.2804 14.9523 70.9571 14.7849 70.6983 14.6731C70.2455 14.394 69.7927 14.0594 69.2757 13.7243C68.2404 13.0547 68.1759 12.664 68.1759 12.4968C68.6288 8.9807 68.0464 6.02295 68.0464 6.02295C68.0464 6.02295 67.5935 4.516 70.0515 4.12529C72.5094 3.73458 73.9972 3.67896 73.9972 3.67896C73.9972 3.67896 75.5497 3.67896 77.9429 4.12529C80.4008 4.516 79.9479 6.02295 79.9479 6.02295C79.9479 6.02295 79.3659 8.9807 79.8187 12.4968C79.8187 12.664 79.7542 13.0547 78.719 13.7243C77.8133 14.2824 77.102 14.8962 76.3906 15.008C75.679 15.1198 74.7733 15.1754 73.9975 15.1754V15.1754Z" fill="#010101"/>
<path d="M73.9974 2.22791C69.7285 2.22791 68.8872 3.23236 67.6583 4.3486C67.3998 4.62752 67.5935 6.30189 68.0467 9.87364H68.6287C68.6287 9.87364 68.2404 8.86892 68.3051 7.69705C68.3699 6.52519 68.6287 6.58109 68.4344 6.30189C68.1759 5.9668 67.6583 5.40868 68.8228 4.85083C69.987 4.29271 71.798 5.29716 73.9974 5.35306C76.1966 5.29716 78.0724 4.29271 79.2366 4.85083C80.4008 5.40868 79.8835 5.9668 79.625 6.30189C79.3661 6.63671 79.6894 6.52492 79.7542 7.69705C79.8187 8.86892 79.4306 9.87364 79.4306 9.87364H80.0127C80.4008 6.30189 80.6596 4.73931 80.4655 4.46012C79.3658 3.23236 78.2664 2.28353 73.9974 2.22791V2.22791ZM94.5018 46.2049C94.5018 46.2049 93.2728 49.6093 90.8797 50.7812C90.362 50.5581 90.4268 50.2233 89.974 49.7208C89.8444 49.5537 89.3916 49.4416 89.1979 49.2745C89.0038 49.1071 89.0686 48.8279 88.745 48.6048C88.4862 48.3815 88.2922 48.5489 88.0334 48.3815C87.7749 48.1585 87.7098 47.8793 87.5161 47.7122C87.3865 47.6004 86.8692 47.5448 86.7399 47.433C86.4163 47.1538 83.5707 46.6516 83.6999 46.0934C83.9584 45.2561 84.476 44.6424 84.476 44.6424C84.476 44.6424 85.705 43.0798 86.9337 43.1354C88.1626 43.1913 89.3271 43.4146 89.974 42.9124C90.6856 42.354 94.6961 44.4191 94.5018 46.2049Z" fill="#010101"/>
<path d="M86.093 21.5378C86.093 21.5378 90.1679 20.7004 92.9495 22.9888C95.731 25.3328 95.5367 28.2347 94.6961 30.0205C95.4074 30.7461 96.7012 32.755 95.731 35.1549C100 38.28 98.1242 43.0798 94.308 46.2609C94.308 46.2609 93.4023 43.3587 89.7802 43.1913C89.9094 42.0754 86.4166 41.1821 88.0336 38.28C85.5757 37.7778 85.6404 36.3267 85.2524 34.5411C84.9288 32.755 86.093 21.5378 86.093 21.5378V21.5378Z" fill="#010101"/>
<path d="M84.6053 23.1003C84.6053 23.1003 89.3271 21.0355 92.1086 23.3795C94.8899 25.7235 94.1134 28.2905 93.2728 30.0764C93.9842 30.8017 95.666 32.867 94.631 35.3223C94.437 35.8804 93.014 35.8804 91.9788 37.3314C94.5659 36.0475 96.1833 36.3826 96.7654 38.0008C97.6711 40.5122 95.6657 43.5258 93.9194 45.2002C93.9194 45.1443 93.8546 45.0884 93.8546 45.0328C93.5961 45.8701 93.2725 47.4883 91.3322 49.2742C90.3618 50.1671 89.5856 50.0556 88.4859 49.8323C87.1925 49.5531 86.7396 49.0506 84.9286 48.2138C83.8937 47.7116 84.4758 47.0976 84.4758 46.5954C84.4758 46.4839 84.605 46.3162 84.7993 46.0931C84.9286 45.8139 85.3167 45.3679 85.8987 44.8654C85.8987 44.8654 86.7396 43.8609 87.9689 43.9165C89.1979 43.9724 90.4913 43.7494 90.8149 43.4702C90.8149 41.5169 88.2277 41.461 89.1331 38.1126C89.1979 37.9452 89.5215 37.666 90.5561 37.5545C89.0035 37.2753 88.2922 37.2194 87.1925 36.3267C86.4164 35.713 85.8343 34.9315 85.6399 33.9271C85.2522 32.1971 84.6053 23.1003 84.6053 23.1003V23.1003Z" fill="#F0EFEF"/>
<path d="M70.9571 19.5844C70.569 19.1378 68.564 16.9056 64.7475 16.0127C63.6478 15.7335 62.9365 16.5149 61.8371 17.073C61.5135 16.9056 60.0905 16.3475 59.3144 16.7379C58.5383 17.1284 58.0209 17.5194 57.2445 17.7983C56.8561 17.6309 55.8215 17.6309 54.9806 17.9098C54.1397 18.1331 52.846 18.6353 51.617 20.0864C50.8409 22.4863 65.3296 20.7001 65.3296 20.7001L70.9571 19.5844Z" fill="#010101"/>
<path d="M71.0867 19.5845C69.0166 18.9704 69.3402 16.9056 64.7476 16.5708C63.8419 16.5149 63.2598 17.1287 62.6129 17.5194C62.9365 17.7986 63.2598 18.2449 63.4538 18.6912C62.8718 18.1334 61.8368 17.4076 60.8016 17.2402C59.8314 17.0731 59.1846 17.6868 58.1496 18.1334C58.3433 18.3005 58.5377 18.5797 58.7962 18.9148C57.8905 18.4126 57.2439 18.2452 56.015 18.6356C55.1741 18.8587 53.5571 19.4727 52.3281 20.9796C51.552 23.3795 65.3941 20.7004 65.3941 20.7004L71.0867 19.5845Z" fill="#8AC640"/>
<path d="M83.2471 20.4774C83.2471 20.4774 83.2471 19.8634 83.1823 19.3056C83.1823 19.194 82.665 18.9149 82.665 18.8033L82.5358 18.6915C82.5358 18.6915 83.5707 18.1893 84.3468 18.4685C85.1874 18.6915 85.6402 19.6404 85.6402 19.6404C87.128 19.194 87.2572 19.6963 87.9689 20.3659C89.5214 20.0867 89.7151 20.5889 90.6856 21.817C90.6856 21.817 89.5214 21.6496 87.2576 21.9841C85.0581 22.263 83.2471 20.4215 83.2471 20.4774V20.4774Z" fill="#010101"/>
<path d="M82.9883 20.1982C82.9883 20.1982 83.3763 19.919 83.2468 19.8631C83.9581 19.5283 84.9285 19.1379 85.3814 20.1982C86.8691 19.7516 87.0631 20.3656 87.7745 21.0355C89.5855 20.31 89.7147 21.2027 89.8443 21.5934C89.2622 21.5934 88.4216 21.6493 87.2572 21.7608C85.0581 22.04 82.9235 20.1423 82.9883 20.1982Z" fill="#8AC640"/>
<path d="M60.9962 18.803C60.9962 18.803 64.6831 19.919 67.7879 19.7516C70.8927 19.5286 76.1967 19.3053 79.0427 20.7563C79.0427 20.7563 81.9534 19.8631 84.6702 20.4771C87.3872 21.0909 92.3676 25.1092 90.8801 29.3506C90.7505 29.6298 89.9096 30.0762 88.9395 30.3554C88.9395 30.3554 89.4571 32.2528 88.5514 33.8153C87.6457 35.3223 85.6406 38.2244 85.5759 42.2425C85.5114 42.9121 85.3821 44.3073 85.2526 44.9769C80.2072 44.8098 72.4453 43.1911 64.8127 43.3028C64.8772 42.5776 64.9419 42.131 65.0067 41.4054H65.2004C64.8124 39.5637 64.6831 38.6148 64.2948 37.2197C61.8368 35.8804 59.2493 34.3178 57.0505 31.3598C54.9159 28.4018 60.9962 18.803 60.9962 18.803V18.803ZM85.9639 48.9397C85.9639 48.9397 89.9744 61.3293 85.2526 66.5195C85.2526 66.5195 85.9639 68.9192 84.3469 71.4865C84.0881 72.6024 83.7645 73.6072 83.5708 74.7231C82.7299 79.3552 81.3066 81.3085 80.9185 88.731L77.0372 88.6753C77.0372 88.6753 76.5844 83.3177 75.2262 80.4715C74.4504 78.8533 71.4097 76.6764 71.5396 74.5001C71.6689 72.8257 72.0569 71.4306 75.3561 69.1981C75.6146 65.9614 71.8629 62.8916 72.4453 50.8371L85.9639 48.9397Z" fill="#010101"/>
<path d="M84.7996 48.4372C85.8345 54.1296 88.2276 62.5568 83.8939 66.6864C84.1496 67.7335 84.1715 68.8132 83.9583 69.8674C83.8291 70.5371 83.5703 71.2626 83.247 72.0437C82.6001 73.3833 82.3413 75.3366 82.1473 76.5084C81.3064 81.1405 81.3064 81.3641 80.9183 88.7866L77.0371 88.7307C77.0371 88.7307 76.5843 83.373 75.2261 80.5271C74.4503 78.9086 72.8329 77.5134 72.7037 75.3368C72.5744 73.6628 73.9326 70.3143 77.167 70.4258C76.973 63.673 73.3505 65.0123 72.3804 50.9486L84.7996 48.4372ZM60.9962 18.803C60.9962 18.803 62.4192 19.1938 63.9714 19.3053C65.5239 19.4168 67.2057 19.3053 68.6932 19.2494C71.798 19.0263 76.1965 18.7471 79.1073 20.1982C79.1073 20.1982 80.7243 19.7516 82.4709 19.8631C83.247 19.919 84.0234 20.4771 84.9288 20.7004C87.7748 21.3142 90.4915 25.3882 89.2622 29.0717C89.133 29.3509 88.2273 29.0717 87.1924 29.3509C87.3861 30.1323 87.516 31.9182 86.4807 33.8156C85.3813 35.7133 83.9583 38.1688 84.2168 42.8568C77.4252 42.5776 74.3852 42.1871 67.658 41.9079C67.0759 39.8429 66.6875 37.7781 66.623 36.7177C67.5287 36.327 68.0457 35.9925 68.7577 35.3225C66.8174 35.6017 66.0409 35.49 64.8764 34.9318C63.7123 34.3737 61.6424 32.5878 60.6075 31.416C60.4782 31.3042 59.7669 33.1457 58.1499 33.2019C57.5675 32.4763 60.0254 30.4112 59.5725 29.6301C57.9558 26.7836 60.9962 18.803 60.9962 18.803V18.803Z" fill="#F0EFEF"/>
<path d="M85.3166 43.805C85.3166 43.805 85.4459 45.8142 85.4459 46.3164C85.4459 46.8745 85.9635 48.5486 86.028 49.3301C85.3166 50.3904 82.2118 52.7903 76.5843 53.6832C71.0216 54.6877 63.6478 47.1537 63.6478 47.1537C63.8419 46.4282 64.4887 44.3072 64.9416 43.1913C65.0064 43.0798 65.1356 42.8006 65.1356 42.6891C65.718 41.9635 85.3166 43.805 85.3166 43.805V43.805Z" fill="#010101"/>
<path d="M83.8938 43.9727C83.8938 45.3679 84.1523 46.3726 84.3467 47.2656C84.67 48.884 85.1873 49.9444 85.1873 51.0047C85.1873 54.2414 80.2714 53.6833 76.1314 53.7951C70.5687 54.7998 65.8469 47.2656 65.8469 47.2656C66.235 45.9819 66.4938 44.5311 67.0759 43.3031C67.1403 42.6335 67.2699 41.7964 67.3344 41.4057C75.2257 41.4057 80.7884 41.7964 84.0228 42.0751C84.1523 42.6891 84.0231 43.7494 83.8938 43.9727Z" fill="#F0EFEF"/>
<path d="M77.6841 51.1719C77.6841 51.1719 74.256 44.5865 63.9711 46.5401C61.5135 52.5114 58.2144 59.376 60.349 66.7985C58.2144 69.3099 55.7565 70.7053 55.7565 75.3371C55.7565 79.9692 56.0153 80.7507 56.0153 80.7507L63.5831 81.0858C63.5831 81.0858 66.041 78.3513 67.0112 75.3933C67.27 74.556 67.5288 73.0493 67.3348 71.3193C67.5932 70.9845 68.693 70.2034 68.8225 68.6964C68.8225 68.6964 72.5094 67.0223 74.6441 62.9483C76.6495 59.2642 76.1318 56.0832 77.6841 51.1719Z" fill="#010101"/>
<path d="M77.6841 51.1719C77.4904 50.5581 74.9029 44.5308 65.3297 46.3165C59.7025 59.2642 61.7724 64.6218 62.613 66.9656C58.7965 71.151 57.0502 72.044 57.8267 80.527H62.8721C65.2004 77.346 65.7181 76.1739 65.8473 71.9884C65.8473 71.821 65.136 72.3232 64.6184 72.8813C65.0067 71.1513 66.1061 70.8165 66.947 69.7562C67.3351 69.3096 67.6584 68.6399 67.6584 67.747C72.1862 65.1241 73.868 61.8312 74.8381 58.4269C75.6146 56.0832 76.5199 52.2322 77.6841 51.1719V51.1719Z" fill="#F0EFEF"/>
<path d="M61.7075 42.1869C61.7075 42.1869 63.4541 42.2425 65.0067 42.6891C66.4944 43.1355 66.4944 43.4144 67.0765 43.9728C67.6586 44.5312 69.0816 45.3679 68.8231 46.205C68.6936 46.6516 68.3703 46.7631 67.9174 47.1538C67.7234 47.3212 66.3001 48.6605 65.9768 48.8279C65.7828 48.9394 65.524 49.1071 65.3299 49.2186L64.3598 49.7767C63.7129 50.0559 63.2601 50.2233 62.5488 50.1674C62.5488 50.1674 60.9317 50.1116 59.8965 49.163C59.8965 49.163 59.7672 48.7164 60.0261 48.4934C60.0261 48.4934 58.6675 47.4886 58.2795 46.819C57.8911 46.1496 57.8911 45.2008 58.1502 44.6986C58.2795 44.1958 60.8019 42.8006 61.7075 42.1869V42.1869ZM63.3249 96.4885L63.1308 97.8839C63.1308 97.8839 62.5488 98.4976 58.215 98.442C53.8165 98.3861 52.6523 97.2143 52.2642 96.6003L52.0057 95.1492C52.0057 95.1492 52.8466 94.0888 53.0407 94.0888C54.4637 94.2004 59.315 95.8747 62.6786 96.3211C63.0013 96.3211 63.0657 96.4326 63.3249 96.4885ZM72.7037 93.6422C72.7037 94.256 72.6389 94.256 72.6389 94.87C73.415 95.3722 75.356 95.6514 79.0425 95.5953C84.4112 95.4837 89.3918 96.9907 95.4719 96.0975L95.5366 95.093L94.9546 95.0374L73.415 93.5304L72.7037 93.6422Z" fill="#010101"/>
<path d="M77.4256 95.5955H79.0426C82.5358 95.484 85.8346 96.1537 89.392 96.3211C91.2678 96.2652 93.5965 95.8745 93.4024 94.7026L75.0325 93.3631C73.9328 94.4234 74.7734 95.3164 77.4256 95.5955V95.5955ZM56.3389 72.1002C56.921 72.435 60.8667 74.4442 67.2703 74.165C67.1408 75.2254 67.2056 77.2904 64.3596 80.9178C62.9366 82.7037 61.7073 85.8291 61.4488 89.7916C61.5136 90.6845 62.0957 91.4657 61.3196 92.6378C61.578 93.3631 62.613 94.8141 63.1306 95.7071C63.6479 96.6003 63.9067 97.6047 60.4783 97.6606C56.9855 97.7162 51.358 97.3814 52.1344 95.0377C52.5228 93.8099 53.6222 92.5263 53.7518 92.0238C53.881 91.5216 53.881 90.0149 54.9804 89.0102C55.9509 86.2198 55.6273 83.541 55.4336 81.0296C55.11 78.4064 55.0452 74.2209 56.3389 72.1002V72.1002ZM62.3545 26.6162C66.9471 21.3142 63.0658 17.0731 55.6924 18.3564C52.7168 18.8587 49.7416 20.6448 49.5472 23.8815C48.5771 23.993 46.378 24.1045 45.2783 27.5648C44.4377 30.2436 43.9848 30.7458 42.4968 32.0851C41.5266 33.0339 42.5615 34.9872 43.2729 36.3826C45.6663 41.1822 53.0401 41.6285 58.0207 45.2561C59.7025 44.8654 61.4488 43.2472 61.9664 42.1869C57.7619 37.8893 58.6673 36.2152 56.9855 33.983C58.7969 33.4246 62.9366 31.2483 62.3545 26.6162Z" fill="#010101"/>
<path d="M61.4487 26.2814C61.7072 25.9463 62.16 25.221 62.3544 24.9418C62.4191 24.8859 63.1305 25.9463 63.1953 25.8907C64.9415 23.4349 65.3944 19.8631 63.389 19.5283C62.9361 19.4724 62.0955 19.3053 61.3839 19.0817C60.0905 18.691 58.9263 18.691 56.8561 19.0261C54.0101 19.4724 51.1641 21.2583 51.1641 23.8256C51.1641 23.993 53.1689 24.4952 53.7513 26.5603C52.7808 25.3882 51.099 24.1045 49.0939 25.2208C46.9593 26.3926 48.059 29.0714 45.213 31.8618C44.2426 32.8106 44.3721 33.9268 45.4067 36.1591C47.0885 39.6752 55.0447 41.5726 59.3785 44.921C60.4134 44.5303 61.1248 43.6374 61.6424 42.9678C58.7316 40.3448 57.5671 37.889 56.7265 36.1032C55.6916 34.0384 54.5271 32.8665 52.2632 31.3034C53.4277 31.6941 54.3334 32.0848 54.8504 32.4196C55.4325 32.7544 56.2734 32.8103 57.0498 32.587C59.8316 31.7505 61.3194 28.4018 61.4487 26.2814Z" fill="#F0EFEF"/>
<path d="M89.5858 27.1743C89.3918 29.295 87.5807 28.2347 86.6106 27.844C84.67 27.1184 82.7294 26.6162 80.4655 26.6162C78.2016 26.6162 75.2909 26.7836 72.7685 27.3417C69.2756 28.1788 68.2404 28.1232 66.6882 27.4532C65.1359 26.7277 62.4195 24.9418 62.4195 24.9418C62.4195 24.9418 62.3547 25.5 63.0016 26.2255C63.8422 27.1184 65.7183 28.2347 68.2407 28.9599C69.4697 29.295 70.4401 29.0714 71.5398 28.8484C77.2966 27.6207 83.3766 27.3974 88.4864 30.0762C88.7452 30.1877 89.6509 29.8529 90.039 29.3506C90.556 28.6254 89.5858 27.1743 89.5858 27.1743V27.1743Z" fill="#010101"/>
<path d="M60.1553 48.4371C60.6726 48.7163 61.3195 48.8837 62.0308 49.386C62.0308 49.386 61.4487 49.386 61.1902 49.1629C60.8666 48.9955 60.2197 48.4933 60.1553 48.4371V48.4371Z" fill="#0A1825"/>
<path d="M78.8485 4.18121C78.6545 3.67898 77.2312 2.78577 73.9327 2.78577C70.375 2.78577 69.3401 3.7346 69.2756 4.23683C69.2756 4.40424 69.0168 6.19039 68.952 6.91564C68.952 6.91564 68.952 7.80858 69.0165 9.14785C69.0813 10.0408 69.3401 10.543 69.4693 11.7152C69.5986 12.9426 69.987 13.7241 70.6983 14.7288C71.0219 14.8959 71.2804 15.0636 71.604 15.1195C72.8977 15.3425 75.1616 15.3984 76.3906 15.1195C77.1019 14.9521 78.0076 13.8917 78.2016 12.9429C78.4601 11.7711 78.7189 10.9337 78.7837 10.2085C78.913 9.48322 78.9778 7.86448 79.0422 7.41787C79.2366 6.19039 78.913 4.29272 78.8485 4.18121V4.18121Z" fill="#F0EFEF"/>
<path d="M72.0569 73.1605C72.0569 73.1605 75.4852 74.4442 83.9587 73.3279C83.9587 73.3279 81.5656 83.7084 82.6653 88.8983C82.6653 88.8983 83.7647 90.2379 91.9149 92.8049C91.9149 92.8049 95.537 93.5863 95.4078 95.1492C95.4078 95.1492 95.537 95.484 91.1388 95.3722C86.7406 95.2604 82.6005 94.5908 79.6898 94.5908C76.779 94.5908 73.6742 94.7023 73.1569 93.9771C72.5748 93.3074 73.2861 91.5772 74.127 90.5724C75.033 89.5124 74.7739 88.7307 74.7094 86.8335C74.5148 81.8666 70.1162 76.7323 72.0569 73.1605V73.1605Z" fill="#010101"/>
<path d="M71.3452 74.1094C70.8924 74.6675 71.4097 76.7879 72.0566 78.853C72.7034 80.9178 74.1267 82.1458 74.45 85.5499C74.7733 88.8983 74.8381 89.345 73.7384 91.298C72.6386 93.251 72.3154 95.0372 76.1315 95.093C79.9476 95.1489 82.0178 95.0372 85.8987 95.5397C89.7799 96.0419 91.1381 96.2093 93.2728 95.9304C95.4074 95.6514 95.86 95.0372 94.9546 94.4793C94.0489 93.9212 90.2972 93.3074 88.6802 92.1909C87.1277 91.1865 82.7295 89.5121 82.665 89.0658C82.471 87.5588 82.4062 82.0897 82.7295 80.3038C83.0531 78.5176 83.5056 75.9506 83.6351 75.2809C83.7647 74.6113 84.4113 73.9414 83.3115 74.1647C82.2121 74.3877 78.0724 74.8902 74.9676 74.7228C71.8628 74.5557 71.5396 73.9417 71.3452 74.1094V74.1094Z" fill="#8AC640"/>
<path opacity="0.3" d="M73.5445 91.3542C74.6439 91.8005 76.2613 92.1356 77.4902 92.1356C77.4902 92.1356 77.0371 93.9774 77.7487 95.0933C78.4601 96.2096 72.5741 95.54 72.5741 95.54L72.3156 91.5775L73.5445 91.3542ZM90.6855 96.1537C91.7204 95.8745 92.4321 94.87 91.5912 93.9215C90.6855 92.9726 89.9094 92.8052 91.0736 92.7496C92.2381 92.6937 96.507 94.9259 96.507 94.9259L94.3076 96.6559L90.6855 96.1537ZM71.1511 76.2857C72.6389 76.7323 74.9028 76.8438 76.8434 76.7879C78.7837 76.7323 81.6944 76.5087 83.5706 75.9509C85.4461 75.3927 84.67 76.5646 84.67 76.5646L83.635 77.4019C83.635 77.4019 81.1771 78.239 77.167 78.1834C72.4452 78.1275 71.0219 77.6811 71.0219 77.6811L71.1511 76.2857ZM71.2803 79.0763C72.7684 79.5229 75.032 79.6344 76.9726 79.5785C78.9129 79.5229 81.5004 79.5229 83.3762 78.9089C84.1523 78.6859 83.6998 79.6344 83.6998 79.6344L83.3762 80.1366C83.3762 80.1366 80.8535 80.9181 76.9078 80.8619C72.186 80.8063 71.3451 80.4712 71.3451 80.4712L71.2803 79.0763Z" fill="#010101"/>
<path d="M67.0115 39.9547C67.0115 40.3454 72.0569 42.5217 74.8381 42.9683C77.6196 43.4146 83.4412 42.9683 84.3465 42.8009L84.217 43.5823C84.217 43.5823 77.296 44.4752 71.9921 43.2475C66.6879 42.0197 67.2703 41.7405 67.2703 41.7405L67.0115 39.9547Z" fill="#010101"/>
<path d="M56.2093 87.5591C56.9854 87.8942 59.7669 88.5079 61.578 88.1731C61.8365 88.1172 61.578 84.3221 62.2896 82.5921C63.3246 80.1923 65.0064 78.239 65.7822 73.9979C63.0654 73.7746 59.961 73.1605 58.3436 72.7139C56.2741 78.1833 56.9857 82.8711 56.2093 87.5591V87.5591ZM60.5434 91.0752C60.9962 91.1867 61.3195 91.6331 61.449 91.3544C61.7075 90.8519 60.9962 89.9033 60.9314 89.2337V89.1778C60.3493 88.7315 56.4036 88.6756 56.6624 88.8986C56.2096 89.6241 55.4983 89.5126 55.2398 90.9637C55.1105 91.6889 56.1455 91.0752 57.1153 91.0193C55.369 92.0238 53.3639 93.3077 53.0403 94.4237C52.6523 95.9862 53.2992 96.4328 55.2398 97.2701C56.9216 97.605 58.9267 97.6609 60.4789 97.605C62.2255 97.3258 62.5491 96.6005 62.0315 95.5958C61.2547 94.0888 60.7374 92.1355 60.5434 91.0752V91.0752Z" fill="#F0EFEF"/>
<path d="M61.2547 18.5797C63.3893 19.6401 66.3649 19.3611 67.4643 19.3052C67.7231 19.3052 70.3106 18.9145 70.4398 18.9701C70.6983 19.026 70.6983 19.1935 70.6983 19.1935C70.6983 19.1935 69.7281 19.6398 67.529 19.7513C65.4592 19.8628 63.0013 19.7513 61.6431 19.1935C60.0257 18.5797 61.2547 18.5797 61.2547 18.5797ZM83.247 19.6401C83.6351 19.8631 86.1578 20.7004 87.2575 21.7049C88.2276 22.5981 87.7103 22.5422 87.516 22.3189C87.2575 22.0397 85.2521 20.8678 84.476 20.5889C83.6999 20.31 82.7294 19.8075 82.7294 19.696C82.7294 19.5844 83.247 19.6401 83.247 19.6401V19.6401Z" fill="#010101"/>
<path d="M60.931 42.8006C62.8069 42.689 64.7475 43.0798 65.9765 44.1957C66.6233 44.7539 67.6583 45.3676 67.529 45.9257C67.529 46.0931 67.1406 46.5397 66.8177 46.8746C66.6236 47.0976 66.0416 47.5998 65.8472 47.7675C65.5887 47.9349 64.683 48.5489 64.489 48.6604C64.295 48.7722 64.0362 49.0514 63.8421 49.107C63.1956 49.3862 62.4839 49.1629 61.837 48.884C61.1905 48.6048 61.9666 48.5489 61.2549 48.1026C59.5087 47.0422 58.5382 46.3164 59.2499 44.2516C59.3143 43.8609 60.0257 43.4143 60.931 42.8006V42.8006Z" fill="#F0EFEF"/>
<path opacity="0.4" d="M44.4372 30.0205C38.6157 32.0297 23.8031 38.3921 19.5989 40.3454C23.0917 42.2428 24.7087 46.819 25.2264 51.4511C25.2908 51.8977 25.3556 52.2884 25.4204 52.7347C25.4849 53.1254 25.5496 53.4044 25.6141 53.5721C25.6141 53.6279 25.6141 53.7395 25.6789 53.7951C29.4953 44.8101 43.1431 35.3226 43.6608 34.597C43.9193 34.2622 43.3372 32.8111 44.2428 31.4163C45.4073 29.6298 47.6715 28.8484 44.4372 30.0205V30.0205ZM58.2793 72.1561C61.2546 67.0218 61.3193 62.1105 61.2546 56.3621C61.2546 53.9622 63.2596 50.5579 62.225 51.5067C58.3438 55.2456 48.5769 62.2779 41.5264 62.6683C51.4229 62.3894 55.3038 66.6867 58.2793 72.1561Z" fill="#010101"/>
<path d="M13.9066 45.0887C17.5935 42.8006 36.6751 34.0389 41.2677 32.8109C45.8599 31.5272 44.4369 30.0203 44.4369 30.0203C44.4369 30.0203 25.8082 36.9405 14.6827 42.9121" fill="#010101"/>
<path opacity="0.4" d="M68.2404 28.9602C66.7526 28.458 65.5884 29.9649 65.9765 31.416C66.3648 32.867 69.8577 34.4852 69.6633 39.7872C69.5341 44.1404 68.4344 45.926 68.4344 45.926L65.9765 43.2475C65.9765 43.2475 65.5884 37.2199 64.7475 36.327C63.9069 35.4341 61.2547 33.8156 60.2197 32.9786C59.1848 32.1412 61.3839 31.0253 61.2547 29.4624C61.1254 27.9557 62.3544 24.9421 62.3544 24.9421L68.2404 28.9602ZM77.2314 52.7344C77.1022 56.9199 78.2019 63.1149 78.6544 66.0729C79.1073 69.0307 79.6894 69.254 78.6544 70.5935C77.6195 71.8772 76.2613 73.9978 76.2613 73.9978L71.798 73.6628C71.798 73.6628 75.3556 69.7562 75.5493 69.0307C75.7434 68.3054 73.7383 62.7804 73.7383 62.7804L77.2314 52.7344ZM68.6287 13.6687C69.5344 15.3984 70.6338 16.1798 72.3801 16.6823C73.415 17.0172 77.4899 17.4638 79.1073 15.9009C79.8186 15.1754 79.3658 13.2221 79.3658 13.2221L75.6789 15.7891L70.6983 15.008L70.1162 13.7243L68.6287 13.6687Z" fill="#010101"/>
<path d="M69.0165 17.5193C70.6983 18.4682 74.9028 19.3611 76.067 19.5285C77.2312 19.7516 79.107 18.4682 80.0127 18.1334C80.9832 17.7427 82.665 17.5193 84.6053 19.0263C84.7993 19.1937 84.1524 19.9192 84.1524 19.9192C84.0877 19.8633 83.6996 19.8633 83.182 19.64C82.6647 19.417 82.2118 19.2493 81.4357 19.3052C78.2013 19.64 77.684 20.5889 74.838 20.0305C71.992 19.4721 71.2804 19.026 68.4991 19.1375" fill="#8AC640"/>
<path d="M69.0165 17.5193C70.6983 18.4682 74.9028 19.3611 76.067 19.5285C77.2312 19.7516 79.107 18.4682 80.0127 18.1334C80.9832 17.7427 82.665 17.5193 84.6053 19.0263C84.7993 19.1937 84.1524 19.9192 84.1524 19.9192C84.0877 19.8633 83.6996 19.8633 83.182 19.64C82.6647 19.417 82.2118 19.2493 81.4357 19.3052C78.2013 19.64 77.684 20.5889 74.838 20.0305C71.992 19.4721 71.2804 19.026 68.4991 19.1375" stroke="#010101" stroke-width="10.8638" stroke-miterlimit="10" stroke-linejoin="round"/>
<path d="M68.4344 17.6868C70.569 18.4683 74.7088 19.3053 75.873 19.5286C77.0371 19.7519 78.913 18.7472 79.8187 18.2449C81.436 17.352 83.5056 18.0775 84.476 19.0264C85.1226 19.6401 85.3817 20.0308 85.3817 20.1982C85.3817 20.4213 84.6056 20.1982 84.6056 20.1982C84.1528 20.0308 83.6351 19.9752 83.2474 19.7516C82.7298 19.5286 82.2121 19.1938 81.4363 19.2494C78.202 19.5845 77.5551 20.5331 74.7739 19.9749C71.9927 19.4168 71.281 18.9146 68.3058 19.0817" fill="#8AC640"/>
<path d="M58.4087 69.8118C58.2795 69.7003 58.538 69.5888 58.4087 69.5888C57.5682 69.5888 56.4037 69.0307 55.7565 68.2492C52.9753 64.7893 48.9 62.5012 41.5262 62.6686C30.4653 62.8916 26.0667 58.9853 25.2261 51.507C24.7733 47.433 23.4795 43.4705 20.8276 41.238L19.275 42.0754C22.2503 44.3076 23.2207 47.9352 23.8676 52.9021C24.9025 60.3805 31.8882 63.8407 40.0385 63.9522C48.5119 64.0637 51.552 65.5707 54.7212 69.2542C55.7562 70.4261 56.9207 70.8168 57.826 70.9842L58.4087 69.8118Z" fill="#010101"/>
<path opacity="0.4" d="M88.4217 33.9271C88.6157 34.7642 89.133 36.3826 90.1678 37.1638C90.621 37.5545 90.6854 37.666 90.2974 37.666C89.909 37.666 87.0632 37.5545 87.0632 37.5545L86.2871 36.3826L88.4217 33.9271Z" fill="#010101"/>
</svg>
