<svg width="878" height="765" viewBox="0 0 878 765" fill="none" xmlns="http://www.w3.org/2000/svg">
<path opacity="0.37" d="M172.707 600.273C174.193 603.972 175.835 607.671 177.633 611.213C204.371 664.023 258.631 697.315 316.487 703.296C362.771 708.018 407.805 692.829 446.506 668.037C485.128 643.324 516.089 608.537 559.012 590.435C619.526 565.014 686.998 544.944 734.455 491.111C788.402 429.958 809.199 337.245 783.789 259.014C759.083 182.671 677.069 157.958 613.349 124.352C498.81 63.8286 340.176 23.6111 220.946 94.6805C78.1053 179.759 104.062 372.898 149.33 506.93C159.651 537.467 160.901 570.366 172.707 600.273Z" fill="#BCD1D8"/>
<path d="M285.604 483.477C281.851 472.852 277.551 460.889 282.32 448.611C288.731 432.083 275.128 423.583 263.165 415.949C252.845 409.495 243.15 403.356 246.434 393.204C250.031 382.185 249.796 373.685 245.731 368.097C242.29 363.375 236.192 360.856 228.061 360.935C221.572 361.014 215.786 352.986 209.61 344.565C202.339 334.648 194.911 324.417 185.529 326.699C183.887 327.093 182.558 328.037 181.776 329.532C178.493 335.75 183.653 350.546 189.204 366.287C195.146 383.287 201.948 402.491 197.491 410.676C192.644 419.648 201.401 427.833 210.704 436.569C220.555 445.778 231.736 456.245 228.765 469.389C225.95 481.667 225.325 486.231 227.045 488.907C228.374 491.032 231.11 491.505 235.254 492.292C238.069 492.843 241.665 493.472 246.043 494.889C264.885 500.792 270.358 513.069 270.436 513.227L270.671 513.778L271.218 513.699C280.288 512.282 285.604 509.685 288.106 505.514C288.262 505.278 288.341 505.042 288.497 504.806C291.155 499.218 288.575 491.898 285.604 483.477Z" fill="#40C193"/>
<path d="M237.443 460.023C240.57 464.903 242.838 469.153 242.603 475.134C242.447 480.722 241.587 486.231 241.118 491.741C241.04 492.921 240.961 494.023 240.883 495.125C239.319 493.787 237.834 492.449 236.27 491.111C235.567 491.032 234.863 491.032 234.081 491.032C236.27 492.843 238.538 494.81 240.727 496.778C240.492 500.634 240.414 504.491 240.414 508.347C240.414 510.63 240.336 513.069 240.492 515.352C238.459 514.093 236.348 512.833 234.394 511.574C228.296 507.796 222.588 504.255 218.21 502.366C214.848 500.949 211.095 499.69 207.499 498.509C198.117 495.44 188.5 492.292 185.295 485.602C183.653 482.139 183.809 477.968 185.764 472.931C190.689 459.944 186.077 457.741 178.336 453.963C172.707 451.208 165.045 447.509 157.383 438.144C154.021 434.051 151.05 430.509 148.392 427.44C140.496 418.074 136.117 412.958 136.665 409.968C136.821 409.259 137.212 408.63 137.994 408C138.385 407.685 138.854 407.37 139.479 407.056C142.45 405.403 145.421 406.662 148.783 408.079C153.318 409.968 158.869 412.407 166.609 408.394C172.707 405.245 179.509 402.333 183.575 404.694C186.389 406.269 188.031 410.361 188.578 417.051C188.735 419.176 189.438 420.671 190.611 421.537C192.331 422.796 194.989 422.639 198.039 422.009C200.15 424.921 202.886 426.338 206.17 427.519C210.783 429.171 214.223 430.667 217.584 434.444C224.777 442.63 231.736 450.972 237.443 460.023Z" fill="#0E8C8C"/>
<path d="M212.503 473.009C207.812 469.861 203.746 462.227 199.837 454.829C194.52 444.755 188.969 434.366 181.386 434.602C169.189 434.917 158.321 420.435 158.165 420.356L157.149 421.143C157.618 421.773 168.563 436.255 181.386 435.94C188.187 435.782 193.582 445.778 198.664 455.537C202.651 463.014 206.795 470.806 211.721 474.19C214.692 476.157 220.165 480.171 226.654 485.287C226.654 484.736 226.654 484.185 226.654 483.634C220.946 478.833 215.864 475.213 212.503 473.009Z" fill="white"/>
<path d="M624.529 570.523C624.529 570.523 631.566 552.893 618.744 527.866C605.844 502.838 595.445 506.694 626.484 487.412C657.523 468.13 626.64 407.528 653.066 399.815C679.492 392.102 702.4 293.958 722.493 306.472C742.586 318.986 715.769 367.074 730.155 381.556C744.463 396.037 746.417 414.375 716.786 429.25C687.154 444.125 737.817 500.949 697.631 518.264C657.445 535.579 669.016 603.5 624.529 570.523Z" fill="#40C193"/>
<path d="M636.804 589.176C636.726 588.94 632.426 566.431 646.108 537.31C660.025 507.639 666.67 475.213 663.934 450.5C662.448 437.12 670.97 431.926 679.179 426.889C687.311 421.931 695.676 416.736 695.207 403.593C694.816 391.708 699.82 363.847 699.976 362.667L701.774 362.982C701.696 363.296 696.614 391.866 697.005 403.514C697.474 417.759 688.64 423.19 680.118 428.384C671.987 433.343 664.403 438.065 665.732 450.264C668.547 475.213 661.823 508.032 647.75 538.019C634.38 566.588 638.524 588.546 638.602 588.782L636.804 589.176Z" fill="white"/>
<path d="M743.524 442.944C754.705 437.593 766.589 440.032 760.412 451.287C754.236 462.542 745.01 463.407 746.73 472.301C748.45 481.194 752.985 490.875 738.443 496.542C723.9 502.13 717.099 501.185 708.264 517.634C699.351 534.083 696.302 546.282 681.056 542.347C665.81 538.333 678.476 518.107 686.372 509.607C686.372 509.607 697.084 500.477 696.927 484.028C696.771 467.579 690.047 456.56 711.157 457.662C732.266 458.606 735.941 446.565 743.524 442.944Z" fill="#0E8C8C"/>
<path d="M678.632 553.838C679.258 551.713 693.956 500.792 705.997 495.282C718.271 489.616 724.917 474.819 727.81 466.556C731.563 455.773 747.59 453.648 748.216 453.569L748.45 455.38C748.294 455.38 732.892 457.426 729.53 467.107C725.933 477.574 719.053 491.269 706.778 496.935C695.52 502.13 680.587 553.838 680.431 554.389L678.632 553.838Z" fill="white"/>
<path d="M291.39 512.833C267.309 506.773 266.996 493.708 266.684 481.116C266.449 470.806 266.215 461.046 253.158 455.065C235.879 447.116 235.489 432.398 235.098 419.412C234.785 409.731 234.55 400.602 227.357 395.644C210.079 383.759 195.459 354.954 195.302 354.639L196.631 353.931C196.788 354.245 211.173 382.657 228.217 394.384C236.036 399.736 236.349 409.259 236.583 419.333C236.974 432.477 237.365 446.171 253.783 453.648C267.622 460.023 267.935 470.727 268.169 481.037C268.482 493.63 268.795 505.593 291.781 511.338L291.39 512.833Z" fill="white"/>
<path d="M258.943 501.185H654.474V213.759C654.474 209.667 651.19 206.282 647.046 206.282H266.371C262.305 206.282 258.943 209.588 258.943 213.759V501.185Z" fill="#F7F7F7"/>
<path d="M272.914 447.599L639.751 447.599V220.696L272.914 220.696V447.599Z" fill="#253641" stroke="white" stroke-width="0.5" stroke-miterlimit="10"/>
<path d="M654.473 458.607H456.748H259.1L215.786 621.444H458.077H697.709L654.473 458.607Z" fill="#F2F2F2"/>
<path d="M274.033 487.176H298.348C299.364 487.176 300.146 487.963 299.912 488.829L297.566 499.454C297.41 500.083 296.784 500.556 296.002 500.556H271.296C270.28 500.556 269.498 499.769 269.733 498.824L272.469 488.199C272.626 487.648 273.251 487.176 274.033 487.176Z" fill="#253641" stroke="white" stroke-width="0.5" stroke-miterlimit="10"/>
<path d="M309.45 487.176H327.823L325.399 500.634H306.635L309.45 487.176Z" fill="#253641" stroke="white" stroke-width="0.5" stroke-miterlimit="10"/>
<path d="M336.971 487.176H355.344L353.467 500.634H334.703L336.971 487.176Z" fill="#253641" stroke="white" stroke-width="0.5" stroke-miterlimit="10"/>
<path d="M364.569 487.176H382.942L381.535 500.634H362.771L364.569 487.176Z" fill="#253641" stroke="white" stroke-width="0.5" stroke-miterlimit="10"/>
<path d="M392.09 487.176H410.463L409.603 500.634H390.839L392.09 487.176Z" fill="#253641" stroke="white" stroke-width="0.5" stroke-miterlimit="10"/>
<path d="M419.61 487.176H437.984L437.671 500.634H418.907L419.61 487.176Z" fill="#253641" stroke="white" stroke-width="0.5" stroke-miterlimit="10"/>
<path d="M640.088 487.176H612.489L615.46 500.634H643.528L640.088 487.176Z" fill="#253641" stroke="white" stroke-width="0.5" stroke-miterlimit="10"/>
<path d="M603.342 487.176H584.969L587.392 500.634H606.156L603.342 487.176Z" fill="#253641" stroke="white" stroke-width="0.5" stroke-miterlimit="10"/>
<path d="M575.821 487.176H557.448L559.324 500.634H578.088L575.821 487.176Z" fill="#253641" stroke="white" stroke-width="0.5" stroke-miterlimit="10"/>
<path d="M548.222 487.176H529.849L531.256 500.634H550.021L548.222 487.176Z" fill="#253641" stroke="white" stroke-width="0.5" stroke-miterlimit="10"/>
<path d="M520.702 487.176H502.329L503.189 500.634H521.953L520.702 487.176Z" fill="#253641" stroke="white" stroke-width="0.5" stroke-miterlimit="10"/>
<path d="M493.181 487.176H474.808L475.121 500.634H493.885L493.181 487.176Z" fill="#253641" stroke="white" stroke-width="0.5" stroke-miterlimit="10"/>
<path d="M447.209 487.176H465.582L465.817 500.634H447.209V487.176Z" fill="#253641" stroke="white" stroke-width="0.5" stroke-miterlimit="10"/>
<path d="M265.98 510.63H304.29L302.101 524.482H263.009L265.98 510.63Z" fill="#253641" stroke="white" stroke-width="0.5" stroke-miterlimit="10"/>
<path d="M646.03 510.63H598.651L601.309 524.482H649.704L646.03 510.63Z" fill="#253641" stroke="white" stroke-width="0.5" stroke-miterlimit="10"/>
<path d="M589.112 510.63H570.192L572.303 524.482H591.692L589.112 510.63Z" fill="#253641" stroke="white" stroke-width="0.5" stroke-miterlimit="10"/>
<path d="M560.653 510.63H541.733L543.297 524.482H562.686L560.653 510.63Z" fill="#253641" stroke="white" stroke-width="0.5" stroke-miterlimit="10"/>
<path d="M532.195 510.63H513.274L514.369 524.482H533.68L532.195 510.63Z" fill="#253641" stroke="white" stroke-width="0.5" stroke-miterlimit="10"/>
<path d="M503.736 510.63H484.815L485.363 524.482H504.674L503.736 510.63Z" fill="#253641" stroke="white" stroke-width="0.5" stroke-miterlimit="10"/>
<path d="M260.194 535.264H299.443L296.55 549.037H256.598L260.194 535.264Z" fill="#253641" stroke="white" stroke-width="0.5" stroke-miterlimit="10"/>
<path d="M309.215 535.264H328.84L326.572 549.037H306.557L309.215 535.264Z" fill="#253641" stroke="white" stroke-width="0.5" stroke-miterlimit="10"/>
<path d="M338.691 535.264H358.315H485.754L486.301 549.037H336.501L338.691 535.264Z" fill="#253641" stroke="white" stroke-width="0.5" stroke-miterlimit="10"/>
<path d="M495.605 535.264H515.229L516.323 549.037H496.308L495.605 535.264Z" fill="#253641" stroke="white" stroke-width="0.5" stroke-miterlimit="10"/>
<path d="M525.002 535.264H544.626L546.268 549.037H526.253L525.002 535.264Z" fill="#253641" stroke="white" stroke-width="0.5" stroke-miterlimit="10"/>
<path d="M554.477 535.264H574.101L576.212 549.037H556.275L554.477 535.264Z" fill="#253641" stroke="white" stroke-width="0.5" stroke-miterlimit="10"/>
<path d="M583.874 535.264H603.498L606.156 549.037H586.219L583.874 535.264Z" fill="#253641" stroke="white" stroke-width="0.5" stroke-miterlimit="10"/>
<path d="M613.271 535.264H652.519L656.115 549.037H616.164L613.271 535.264Z" fill="#253641" stroke="white" stroke-width="0.5" stroke-miterlimit="10"/>
<path d="M475.355 510.63H456.513V524.482H475.668L475.355 510.63Z" fill="#253641" stroke="white" stroke-width="0.5" stroke-miterlimit="10"/>
<path d="M446.896 510.63H427.898L427.351 524.482H446.74L446.896 510.63Z" fill="#253641" stroke="white" stroke-width="0.5" stroke-miterlimit="10"/>
<path d="M418.438 510.63H399.439L398.345 524.482H417.734L418.438 510.63Z" fill="#253641" stroke="white" stroke-width="0.5" stroke-miterlimit="10"/>
<path d="M389.979 510.63H370.98L369.339 524.482H388.728L389.979 510.63Z" fill="#253641" stroke="white" stroke-width="0.5" stroke-miterlimit="10"/>
<path d="M361.52 510.63H342.522L340.333 524.482H359.722L361.52 510.63Z" fill="#253641" stroke="white" stroke-width="0.5" stroke-miterlimit="10"/>
<path d="M333.061 510.63H314.063L311.405 524.482H330.716L333.061 510.63Z" fill="#253641" stroke="white" stroke-width="0.5" stroke-miterlimit="10"/>
<path d="M274.893 478.755L278.02 466.792H286.933L284.04 478.755H274.893Z" fill="#253641" stroke="white" stroke-width="0.5" stroke-miterlimit="10"/>
<path d="M295.846 466.792H313.672L311.248 478.755H293.031L295.846 466.792Z" fill="#253641" stroke="white" stroke-width="0.5" stroke-miterlimit="10"/>
<path d="M322.663 466.792H340.489L338.456 478.755H320.318L322.663 466.792Z" fill="#253641" stroke="white" stroke-width="0.5" stroke-miterlimit="10"/>
<path d="M349.402 466.792H367.228L365.664 478.755H347.525L349.402 466.792Z" fill="#253641" stroke="white" stroke-width="0.5" stroke-miterlimit="10"/>
<path d="M376.14 466.792H393.966L392.872 478.755H374.733L376.14 466.792Z" fill="#253641" stroke="white" stroke-width="0.5" stroke-miterlimit="10"/>
<path d="M402.879 466.792H420.705L420.08 478.755H401.941L402.879 466.792Z" fill="#253641" stroke="white" stroke-width="0.5" stroke-miterlimit="10"/>
<path d="M429.618 466.792H447.444L447.287 478.755H429.149L429.618 466.792Z" fill="#253641" stroke="white" stroke-width="0.5" stroke-miterlimit="10"/>
<path d="M456.357 466.792H474.182L474.495 478.755H456.357V466.792Z" fill="#253641" stroke="white" stroke-width="0.5" stroke-miterlimit="10"/>
<path d="M483.095 466.792H500.921L501.703 478.755H483.565L483.095 466.792Z" fill="#253641" stroke="white" stroke-width="0.5" stroke-miterlimit="10"/>
<path d="M509.834 466.792H527.738L528.911 478.755H510.772L509.834 466.792Z" fill="#253641" stroke="white" stroke-width="0.5" stroke-miterlimit="10"/>
<path d="M536.651 466.792H554.477L556.197 478.755H538.058L536.651 466.792Z" fill="#253641" stroke="white" stroke-width="0.5" stroke-miterlimit="10"/>
<path d="M563.39 466.792H581.216L583.405 478.755H565.266L563.39 466.792Z" fill="#253641" stroke="white" stroke-width="0.5" stroke-miterlimit="10"/>
<path d="M590.129 466.792H607.954L610.613 478.755H592.474L590.129 466.792Z" fill="#253641" stroke="white" stroke-width="0.5" stroke-miterlimit="10"/>
<path d="M616.867 466.792H634.693L637.82 478.755H619.682L616.867 466.792Z" fill="#253641" stroke="white" stroke-width="0.5" stroke-miterlimit="10"/>
<path d="M685.121 634.116H228.374C221.415 634.116 215.786 628.449 215.786 621.444H697.709C697.709 628.449 692.08 634.116 685.121 634.116Z" fill="#D3D3D3"/>
<path d="M512.805 568.792C512.336 565.958 509.834 563.833 507.02 563.833H456.826H406.554C403.661 563.833 401.237 565.958 400.768 568.792L394.514 606.963C393.888 610.583 396.703 613.889 400.299 613.889H456.748H513.196C516.871 613.889 519.607 610.583 518.982 606.963L512.805 568.792Z" fill="#D3D3D3"/>
<path d="M338.534 239.968H297.644V244.218H338.534V239.968Z" fill="white"/>
<path d="M379.502 271.685H350.027V275.935H379.502V271.685Z" fill="white"/>
<path d="M403.661 271.685H384.115V275.935H403.661V271.685Z" fill="white"/>
<path d="M317.659 351.491H298.113V355.741H317.659V351.491Z" fill="white"/>
<path d="M454.871 271.685H407.57V275.935H454.871V271.685Z" fill="white"/>
<path d="M328.527 335.514H298.113V339.764H328.527V335.514Z" fill="white"/>
<path d="M359.018 367.31H340.489V371.56H359.018V367.31Z" fill="white"/>
<path d="M334.86 367.31H298.113V371.56H334.86V367.31Z" fill="white"/>
<path d="M318.363 383.208H298.113V387.458H318.363V383.208Z" fill="white"/>
<path d="M375.515 239.968H346.509V244.218H375.515V239.968Z" fill="white"/>
<path d="M375.515 287.583H346.509V291.833H375.515V287.583Z" fill="white"/>
<path d="M344.398 303.403H331.967V307.653H344.398V303.403Z" fill="white"/>
<path d="M347.447 319.537H319.614V323.787H347.447V319.537Z" fill="white"/>
<path d="M390.135 319.537H351.669V323.787H390.135V319.537Z" fill="white"/>
<path d="M327.119 303.56H298.113V307.81H327.119V303.56Z" fill="white"/>
<path d="M315.314 319.537H298.113V323.787H315.314V319.537Z" fill="white"/>
<path d="M366.524 303.56H350.262V307.81H366.524V303.56Z" fill="white"/>
<path d="M314.923 399.028H298.661V403.278H314.923V399.028Z" fill="white"/>
<path d="M327.04 271.685H298.034V275.935H327.04V271.685Z" fill="white"/>
<path d="M352.685 351.491H323.679V355.741H352.685V351.491Z" fill="white"/>
<path d="M353.076 383.208H324.07V387.458H353.076V383.208Z" fill="white"/>
<path d="M404.599 383.208H375.593V387.458H404.599V383.208Z" fill="white"/>
<path d="M339.393 287.583H298.034V291.833H339.393V287.583Z" fill="white"/>
<path d="M520.858 239.968H491.852V244.218H520.858V239.968Z" fill="white"/>
<path d="M417.499 399.028H388.493V403.278H417.499V399.028Z" fill="white"/>
<path d="M549.239 239.968H529.849V244.218H549.239V239.968Z" fill="white"/>
<path d="M614.991 255.866H595.601V260.116H614.991V255.866Z" fill="white"/>
<path d="M420.314 239.968H383.333V244.218H420.314V239.968Z" fill="white"/>
<path d="M564.328 255.866H527.347V260.116H564.328V255.866Z" fill="white"/>
<path d="M518.982 271.685H482.001V275.935H518.982V271.685Z" fill="white"/>
<path d="M470.899 287.583H433.918V291.833H470.899V287.583Z" fill="white"/>
<path d="M549.864 271.685H523.594V275.935H549.864V271.685Z" fill="white"/>
<path d="M484.581 239.968H447.6V244.218H484.581V239.968Z" fill="white"/>
<path d="M427.116 287.583H405.459V291.833H427.116V287.583Z" fill="white"/>
<path d="M410.15 351.727H388.493V355.977H410.15V351.727Z" fill="white"/>
<path d="M440.642 239.968H427.116V244.218H440.642V239.968Z" fill="white"/>
<path d="M396.859 287.583H383.333V291.833H396.859V287.583Z" fill="white"/>
<path d="M586.767 255.866H573.241V260.116H586.767V255.866Z" fill="white"/>
<path d="M318.832 255.866H297.644V260.116H318.832V255.866Z" fill="white"/>
<path d="M370.902 335.593H354.171V339.843H370.902V335.593Z" fill="white"/>
<path d="M330.872 255.866H324.07V260.116H330.872V255.866Z" fill="white"/>
<path d="M520.858 255.866H464.331V260.116H520.858V255.866Z" fill="white"/>
<path d="M466.677 383.208H410.15V387.458H466.677V383.208Z" fill="white"/>
<path d="M342.834 255.866H335.876V260.116H342.834V255.866Z" fill="white"/>
<path d="M459.093 255.866H440.642V260.116H459.093V255.866Z" fill="white"/>
<path d="M477.623 271.685H459.171V275.935H477.623V271.685Z" fill="white"/>
<path d="M382.552 399.028H364.1V403.278H382.552V399.028Z" fill="white"/>
<path d="M435.794 255.866H396.468V260.116H435.794V255.866Z" fill="white"/>
<path d="M382.786 351.727H359.8V355.977H382.786V351.727Z" fill="white"/>
<path d="M369.886 383.208H358.393V387.458H369.886V383.208Z" fill="white"/>
<path d="M390.839 255.866H377.313V260.116H390.839V255.866Z" fill="white"/>
<path d="M345.336 271.685H331.81V275.935H345.336V271.685Z" fill="white"/>
<path d="M347.994 335.593H334.469V339.843H347.994V335.593Z" fill="white"/>
<path d="M372.231 255.866H348.62V260.116H372.231V255.866Z" fill="white"/>
<path d="M546.58 287.741C546.58 287.741 553.46 299.468 556.353 301.356C560.262 303.954 557.839 306.551 555.962 306.63C554.086 306.63 544.548 307.338 542.437 304.898C540.326 302.458 539.309 295.296 537.355 293.407C535.4 291.519 533.367 284.042 538.293 282.232C542.593 280.579 546.58 287.741 546.58 287.741Z" fill="#EB4747"/>
<path d="M543.531 282.625C543.531 282.625 551.428 296.398 552.757 298.366C554.086 300.412 550.177 300.412 547.753 299.468C545.329 298.523 539.231 288.685 538.371 286.875C537.355 284.75 538.215 282.31 538.215 282.31L543.531 282.625Z" fill="#FFE3CA"/>
<path d="M535.557 289.944L537.433 304.032L538.371 304.111L538.058 293.958L535.557 289.944Z" fill="#EB4747"/>
<path d="M478.326 287.741C478.326 287.741 485.206 299.468 488.099 301.356C492.008 303.954 489.585 306.551 487.708 306.63C485.832 306.63 476.293 307.338 474.183 304.898C472.072 302.458 471.055 295.296 469.101 293.407C467.146 291.518 465.035 283.806 470.039 282.231C474.417 280.815 478.326 287.741 478.326 287.741Z" fill="#EB4747"/>
<path d="M475.746 282.625C475.746 282.625 483.174 296.319 484.581 298.366C485.91 300.412 482.001 300.412 479.577 299.468C477.154 298.523 471.055 288.685 470.195 286.875C469.179 284.75 470.039 282.31 470.039 282.31L475.746 282.625Z" fill="#FFE3CA"/>
<path d="M467.381 289.944L469.179 304.032L470.195 304.111L469.882 293.958L467.381 289.944Z" fill="#EB4747"/>
<path d="M447.835 180.94L510.069 209.509C510.069 209.509 517.027 211.792 517.809 219.583C520.233 243.824 538.215 282.231 538.215 282.231C544 285.065 543.531 282.625 543.531 282.625C539.857 270.819 535.478 222.338 533.836 202.898C533.524 198.806 533.289 195.972 533.211 195.028C533.211 194.398 532.507 193.611 531.335 192.667C522.813 185.662 487.63 171.259 487.63 171.259C461.439 170.551 447.835 180.94 447.835 180.94Z" fill="#FFE3CA"/>
<path d="M436.107 193.218C438.062 210.139 462.064 208.25 462.064 208.25H491.148C491.148 208.25 483.486 225.407 480.515 239.81C477.388 255.157 469.961 282.232 469.961 282.232C469.961 282.232 470.43 283.176 475.746 282.625C475.746 282.625 498.576 236.819 507.332 225.25C509.209 222.81 514.603 209.273 515.542 201.245C515.854 198.569 515.698 196.444 514.682 195.579C513.665 194.713 511.32 193.139 508.271 191.171C499.123 185.347 483.33 176.454 474.495 174.486C462.69 171.81 444.004 166.773 444.004 166.773C444.004 166.773 434.153 176.296 436.107 193.218Z" fill="#FFE3CA"/>
<path d="M455.888 62.7268C455.888 62.7268 451.509 54.3842 453.62 45.5694C455.731 36.6759 463.941 27.8611 475.903 31.9537C487.865 36.0463 497.559 45.3333 490.367 56.1944C483.174 66.9768 496.856 71.9352 493.338 77.0509C489.819 82.1667 491.148 87.5972 492.634 88.7778C494.119 89.9583 498.889 94.2083 498.341 99.3241C497.794 104.361 475.121 84.6065 475.121 84.6065C475.121 84.6065 462.846 59.5 455.888 62.7268Z" fill="#FFB750"/>
<path d="M492.399 169.134C492.399 169.134 490.601 177.949 444.082 166.852C444.082 166.852 459.64 161.657 492.399 169.134Z" fill="#EB4747"/>
<path d="M443.535 169.292C442.831 170.708 442.127 172.046 441.346 173.463C458.311 173.935 475.355 174.486 492.321 174.958C489.663 165.907 490.523 153.63 490.992 144.343C491.539 132.931 497.794 125.06 497.169 113.569C500.53 114.12 501.078 114.199 504.44 114.75C499.279 99.9537 497.559 92.6342 481.532 86.9676C476.294 85.0787 472.932 84.7639 467.302 85.2361C448.773 86.8102 443.222 86.9676 434.074 103.889C448.304 106.171 445.958 111.287 450.258 125.611C452.369 132.537 454.559 140.329 453.464 147.648C452.369 154.81 443.535 162.759 443.535 169.292Z" fill="#2A94F4"/>
<path d="M473.088 90.5092C465.504 89.0925 467.146 84.8425 467.146 84.8425C467.146 84.8425 467.459 82.4814 467.615 79.412C467.615 78.6249 467.693 77.8379 467.693 76.9722C467.693 75.7129 467.615 74.4536 467.459 73.1944C466.833 68.0786 481.219 71.1481 481.219 71.1481C481.219 71.1481 480.359 81.537 482.392 84.6064C484.346 87.7546 480.672 92.0046 473.088 90.5092Z" fill="#FFE3CA"/>
<path d="M458.624 84.8425C458.624 84.8425 473.948 102.63 479.577 106.722C479.577 106.722 486.066 100.819 482.079 85.2361C482.079 85.2361 474.73 81.4583 458.624 84.8425Z" fill="#FFE3CA"/>
<path d="M459.093 42.0277C459.093 42.0277 451.118 57.4536 459.015 72.0138C466.911 86.574 482.392 65.6388 483.33 63.199C484.346 60.7592 489.663 46.8286 479.108 42.6573C468.553 38.4073 461.361 37.8564 459.093 42.0277Z" fill="#FFE3CA"/>
<path d="M474.417 73.5879C474.417 73.5879 473.01 76.6573 467.615 79.412C467.615 78.6249 467.693 77.8379 467.693 76.9722C467.693 76.9722 471.368 76.5786 474.417 73.5879Z" fill="#FCD2B1"/>
<path d="M394.123 155.44C394.123 155.44 390.37 157.093 388.572 156.384C386.773 155.597 384.037 155.44 383.177 155.44C382.004 155.44 378.33 154.102 378.408 155.597C378.486 157.014 384.35 158.037 385.522 158.509C386.695 158.981 381.926 161.579 381.457 162.759C380.988 163.94 386.461 171.653 389.51 169.449C392.559 167.245 394.201 162.838 394.826 162.523C395.452 162.208 397.094 161.028 397.094 161.028L394.123 155.44Z" fill="#FFE3CA"/>
<path d="M382.082 162.051C382.082 162.051 373.248 169.449 373.091 170.472C372.935 171.495 373.404 171.968 374.264 171.259C375.124 170.63 383.021 164.333 383.021 164.333C383.021 164.333 374.186 174.88 373.873 175.667C373.717 176.139 374.577 177.083 375.046 176.769C375.515 176.454 384.975 166.537 384.975 166.537C384.975 166.537 376.688 176.375 376.688 177.162C376.61 177.792 377.626 178.5 378.33 177.792C379.033 177.083 387.243 168.426 387.243 168.426C387.243 168.426 381.692 175.981 382.082 176.69C382.317 177.083 383.021 177.949 384.35 175.981C385.679 174.014 389.432 169.606 389.432 169.606L382.082 162.051Z" fill="#FFE3CA"/>
<path d="M488.099 208.171H462.064C462.064 208.171 438.062 210.139 436.107 193.139C434.153 176.218 444.004 166.773 444.004 166.773C444.004 166.773 456.669 170.157 467.772 172.833C473.323 171.653 479.968 170.866 487.787 171.102C487.787 171.102 534.697 186.685 533.289 194.949C533.289 195.028 513.665 184.482 488.099 208.171Z" fill="#2A94F4"/>
<path d="M471.133 178.893L520.858 178.106L495.761 190.935L471.133 178.893Z" fill="#F2F2F2"/>
<path d="M486.614 172.44C486.614 172.44 475.433 176.768 461.751 172.833L461.126 167.718L489.35 169.292L486.614 172.44Z" fill="#2A94F4"/>
<path d="M495.761 190.935L471.133 181.333V178.894L497.716 188.495L495.761 190.935Z" fill="#D3D3D3"/>
<path d="M486.379 174.88C486.223 176.69 488.099 178.028 489.819 177.319L492.712 176.06C493.572 175.667 494.119 174.801 493.963 173.856C492.79 166.301 490.21 136.866 493.963 131.75C495.37 129.861 496.23 128.208 496.699 126.792C499.201 133.245 502.25 141.588 503.501 146.074L526.956 177.556L534.853 179.602C525.002 155.755 517.105 143.162 517.105 143.162C515.542 138.991 511.163 126.398 507.254 115.222C504.752 108.139 502.563 101.606 501.312 98.1435C500.687 96.3333 499.514 94.838 497.872 93.8935C494.197 91.6898 488.177 88.2269 482.705 85.5509H482.626C482.47 85.4722 482.314 85.3935 482.079 85.3148C492.556 101.134 488.49 146.074 486.379 174.88C486.379 174.801 486.379 174.801 486.379 174.88Z" fill="#393939"/>
<path d="M447.6 86.5741C444.238 87.125 435.951 95.2315 431.573 103.417C426.569 112.782 421.409 123.407 417.578 126.87C410.541 133.324 390.761 156.069 389.823 155.519C389.432 155.282 395.217 162.287 395.999 162.602C396.39 162.759 428.445 134.741 431.573 130.491C434.465 126.477 442.284 109.477 444.629 109.87C444.786 110.264 447.678 116.481 450.337 125.532C450.415 125.69 450.415 125.847 450.493 126.005C452.369 132.301 452.213 139.227 451.197 146.94C450.415 152.764 446.115 162.287 443.535 166.931C443.222 167.481 443.3 168.583 443.613 169.37C443.847 169.843 444.082 170.236 444.473 170.394L453.933 173.935L456.122 174.722C457.686 175.352 459.406 175.037 460.657 174.093C461.673 173.384 462.455 172.204 462.611 170.787C464.722 154.574 467.381 137.968 469.492 131.75C478.795 104.361 465.895 83.7407 465.895 83.7407C465.895 83.7407 450.571 85.4722 447.6 86.5741Z" fill="#393939"/>
<path d="M495.761 190.935L510.538 150.324L558.152 151.111L544.079 188.574L495.761 190.935Z" fill="#D3D3D3"/>
<path d="M525.784 168.268C524.298 171.18 524.767 174.407 526.8 175.352C528.833 176.375 531.569 174.801 533.055 171.889C534.54 168.977 534.071 165.75 532.038 164.805C530.005 163.782 527.191 165.356 525.784 168.268Z" fill="#F2F0F0"/>
<path d="M496.856 91.5324C493.337 86.1805 490.836 81.9305 490.523 74.2963C490.288 69.2592 489.194 62.412 485.754 59.0278C489.35 49.5833 485.128 46.75 483.408 43.6805C481.297 39.824 465.661 30.537 459.484 40.2963C453.308 49.9768 455.497 60.1296 455.497 60.1296C456.122 54.7778 461.595 47.537 461.595 47.537C462.455 53.125 473.948 62.2546 478.952 65.9537C478.873 66.0324 478.795 66.1898 478.795 66.2685C475.981 70.3611 479.499 74.4537 480.124 78.7824C480.75 83.1111 468.319 94.7592 482.157 100.583C495.996 106.486 500.374 96.8055 496.856 91.5324Z" fill="#FFB750"/>
<path d="M245.183 549.981C245.183 549.981 244.871 553.287 229.547 553.287C214.223 553.287 191.94 549.273 191.94 549.273L227.514 545.81C227.514 545.81 241.196 545.102 245.183 549.981Z" fill="#0E538C"/>
<path d="M206.17 551.162C197.491 551.162 193.817 555.648 190.377 557.065C186.937 558.481 183.497 560.606 183.497 560.528C185.451 556.671 188.188 556.592 189.595 555.333C191.002 554.074 190.611 554.704 187.562 554.468C185.842 554.31 182.715 557.537 180.526 559.347C178.571 560.842 177.398 561 177.398 561C177.398 561 179.666 557.773 182.48 555.176C185.92 552.028 190.22 549.43 191.237 548.958C193.113 548.171 198.899 548.014 202.964 548.565C207.655 549.194 212.424 551.162 206.17 551.162Z" fill="#0E538C"/>
<path d="M191.784 549.116C191.784 549.116 185.138 550.847 183.966 551.792C183.184 552.421 179.744 556.12 179.744 556.12C179.744 556.12 182.246 555.727 183.653 554.31C185.138 552.815 191.784 549.116 191.784 549.116Z" fill="#0E538C"/>
<path d="M232.596 543.213C232.596 543.213 249.327 544.315 248.154 554.704C247.529 560.606 243.698 562.653 238.616 562.18C229.234 561.393 218.601 559.977 218.601 559.977L213.832 543.843L232.596 543.213Z" fill="#0E538C"/>
<path d="M236.114 544.63L252.532 491.347C252.532 491.347 254.956 483.556 258.944 484.972C264.651 487.097 261.836 493.472 261.367 497.25C260.351 504.963 261.054 508.347 255.738 526.921C252.454 538.412 249.64 551.634 246.825 559.19C244.871 564.384 241.509 556.907 236.427 554.861C226.888 551.005 236.114 544.63 236.114 544.63Z" fill="#0E538C"/>
<path d="M237.365 462.384C240.57 471.671 250.5 476.472 259.647 473.088C268.716 469.704 273.564 459.394 270.358 450.106C267.153 440.819 257.224 436.019 248.076 439.403C239.007 442.787 234.159 453.097 237.365 462.384Z" fill="#253641"/>
<path d="M219.383 463.25C224.386 470.806 234.394 472.694 241.665 467.5L240.649 458.606C247.92 453.333 249.718 442.944 244.714 435.389L241.274 430.273C236.27 422.718 226.263 420.829 218.992 426.023L215.708 428.384C208.437 433.657 206.639 444.046 211.643 451.602L219.383 463.25Z" fill="#253641"/>
<path d="M212.815 438.458C213.675 439.718 214.613 440.898 215.708 442.079C222.901 449.949 232.518 452.94 238.616 449.713C241.43 453.569 244.636 456.639 247.529 459C250.891 461.755 259.491 462.856 259.491 462.856C264.495 468.366 245.731 500.556 244.401 500.398C241.665 500.162 238.147 482.375 240.727 475.921C241.9 473.009 243.776 469.546 243.229 467.972C241.274 462.542 238.538 463.486 238.538 463.486C238.538 463.486 234.941 467.736 232.127 467.579C229.234 467.343 224.23 462.778 223.996 462.699C223.135 461.991 222.354 461.125 221.65 460.102L214.144 448.769C212.19 445.62 211.721 441.843 212.815 438.458Z" fill="#FFE3CA"/>
<path d="M270.202 574.065C270.202 574.065 264.104 581.463 262.227 582.25C259.725 583.352 252.063 580.991 252.063 580.991C252.063 580.991 250.031 547.069 247.685 533.847C245.34 520.625 241.9 517.162 241.743 512.991C241.509 506.301 235.958 503.625 236.896 498.431C237.834 493.236 239.476 474.662 240.023 477.102C244.792 498.194 250.656 480.644 251.985 477.889C252.689 476.394 270.202 574.065 270.202 574.065Z" fill="#393939"/>
<path d="M242.447 470.806C242.447 470.806 235.019 478.991 235.567 482.218C236.036 485.444 232.361 495.519 236.036 509.528C240.179 525.505 242.369 536.366 243.15 546.833C243.932 557.301 240.414 566.903 241.821 579.731C242.916 589.805 245.183 590.356 245.183 590.356C245.183 590.356 249.64 591.458 252.767 587.523C255.894 583.667 251.203 549.352 249.64 540.852C248.076 532.273 243.072 512.282 241.743 506.38C240.101 499.139 240.414 491.741 240.492 489.616C240.883 482.139 241.821 477.495 242.603 474.662C242.681 474.268 243.072 469.861 242.447 470.806Z" fill="#0E538C"/>
<path d="M255.425 480.407C259.491 492.213 272.157 498.273 283.728 493.944C295.299 489.616 301.397 476.551 297.332 464.745C293.266 452.94 280.6 446.88 269.029 451.208C257.458 455.458 251.36 468.602 255.425 480.407Z" fill="#393939"/>
<path d="M215.63 683.306L219.774 716.597L201.791 725.176L191.862 727.38L209.532 713.607L203.746 683.542L215.63 683.306Z" fill="#FCBAA2"/>
<path d="M220.946 721.634L217.037 722.657L214.379 720.218L199.993 727.458L187.249 730.528C187.249 730.528 187.093 729.505 187.484 728.954C189.047 726.829 198.039 722.185 198.039 722.185C198.039 722.185 198.195 725.255 199.446 725.333C200.697 725.412 211.721 719.588 214.301 718.014C218.679 715.259 219.539 713.449 219.852 713.685C220.79 714.157 220.946 721.634 220.946 721.634Z" fill="#FFB750"/>
<path d="M172.238 637.028L157.931 665.361L138.228 664.417L128.377 661.505L150.19 657.806L162.074 633.565L172.238 637.028Z" fill="#FCBAA2"/>
<path d="M156.758 670.398L152.849 669.454L151.598 665.991L133.85 665.755L123.295 663.236C123.295 663.236 124.546 661.819 125.328 661.426C127.674 660.403 136.039 659.931 136.039 659.931C136.039 659.931 135.179 662.37 136.274 663C137.368 663.708 149.565 664.102 152.536 663.866C157.696 663.472 159.181 662.37 159.338 662.685C159.885 663.787 156.758 670.398 156.758 670.398Z" fill="#FFB750"/>
<path d="M276.613 552.264L265.98 557.065L266.058 571.782L192.8 559.741C192.8 559.741 185.842 557.458 181.386 569.028C175.053 585.398 158.947 636.319 158.947 636.319L169.111 647.417L201.088 589.884C201.088 589.884 266.605 621.917 288.184 614.991C296.472 612.315 302.804 597.046 301.632 581.62C300.693 569.5 298.348 558.403 298.348 558.403L276.613 552.264Z" fill="#393939"/>
<path d="M267.309 614.676L214.848 610.741L219.383 695.111L203.902 695.662L192.488 596.81C192.488 596.81 195.537 582.093 205.544 584.296C215.63 586.579 239.867 605.94 267.309 614.676Z" fill="#212121"/>
<path d="M302.648 635.847C302.648 635.847 275.127 604.759 268.013 587.208C259.491 566.194 260.194 539.829 258.631 531.093C255.738 515.037 252.22 483.87 251.594 480.014C250.891 476.157 253.314 471.829 253.314 471.829C253.314 471.829 251.516 460.181 256.676 461.44C264.104 463.25 271.453 467.343 274.033 468.602C278.88 470.806 288.81 529.519 289.357 532.352C291.39 542.583 298.817 551.87 304.134 561.394C316.643 583.981 319.848 610.662 319.848 610.662C319.848 610.662 318.285 630.181 302.648 635.847Z" fill="#2A94F4"/>
<path d="M274.267 554.546C274.267 554.546 274.033 558.324 256.52 557.458C239.007 556.514 213.363 550.611 213.363 550.611L253.94 548.722C253.94 548.722 269.498 548.801 274.267 554.546Z" fill="#FFE3CA"/>
<path d="M227.123 552.657C218.757 552.5 215.161 556.829 211.877 558.167C208.593 559.505 205.231 561.472 205.231 561.472C207.108 557.773 209.766 557.694 211.173 556.514C212.503 555.333 212.19 555.963 209.219 555.648C207.499 555.491 204.528 558.56 202.417 560.292C200.54 561.787 199.368 561.866 199.368 561.866C199.368 561.866 201.557 558.718 204.293 556.199C207.655 553.208 211.721 550.69 212.737 550.296C214.535 549.588 220.086 549.509 224.074 550.139C228.53 550.769 233.143 552.815 227.123 552.657Z" fill="#FFE3CA"/>
<path d="M213.128 550.375C213.128 550.375 206.717 551.949 205.622 552.815C204.841 553.444 201.557 556.986 201.557 556.986C201.557 556.986 203.902 556.593 205.31 555.255C206.717 553.995 213.128 550.375 213.128 550.375Z" fill="#FFE3CA"/>
<path d="M260.273 550.375L286.23 536.602C286.23 536.602 286.308 553.287 286.464 559.662C286.62 566.037 289.279 575.009 284.275 576.347C279.271 577.685 276.691 576.977 281.851 580.046C287.011 583.037 285.839 586.185 283.884 588.782C281.929 591.38 290.451 617.824 288.419 619.319C280.366 609.088 271.687 596.417 267.935 587.208C263.165 575.245 261.289 561.551 260.273 550.375Z" fill="#0E538C"/>
<path d="M268.638 543.685L267.622 490.482C267.622 490.482 267.7 473.875 268.013 468.995C268.326 463.958 276.848 469.861 276.848 469.861C276.848 469.861 288.81 486.153 289.044 525.426C289.201 551.713 287.793 565.407 275.753 564.306C264.573 563.282 251.829 561.551 251.829 561.551L246.278 546.991L268.638 543.685Z" fill="#2A94F4"/>
<path d="M265.98 571.782L176.616 560.528L176.851 558.639L266.215 569.893L265.98 571.782Z" fill="#D3D3D3"/>
<path d="M226.81 564.856C226.654 566.352 225.481 567.454 224.23 567.296L178.415 561.551C177.164 561.394 175.6 560.213 174.505 556.278L156.836 510.236C157.07 508.347 158.556 507.403 159.807 507.875L206.639 515.273C207.89 515.745 208.75 516.847 209.219 518.893L226.81 564.856Z" fill="#D3D3D3"/>
<path d="M221.025 566.116L221.494 566.194L266.215 571.861C264.495 572.569 261.758 572.805 258.709 572.412L221.259 567.69L220.79 567.611L183.34 562.889C180.291 562.495 177.711 561.551 176.147 560.528L221.025 566.116Z" fill="#D3D3D3"/>
<path d="M268.638 543.685L267.622 490.481C267.622 490.481 268.404 485.995 269.967 481.982C270.358 487.806 273.017 529.755 273.329 535.264C273.72 541.245 278.568 541.875 279.584 543.843C280.679 545.731 279.74 546.125 276.144 545.417C272.626 544.63 273.877 545.259 274.658 547.148C275.44 549.116 273.486 548.565 266.605 546.046C261.602 544.236 251.985 546.046 247.138 547.148L268.638 543.685Z" fill="#0E538C"/>
<path d="M577.619 413.116C569.019 415.398 553.148 423.426 549.786 437.199C544.782 457.898 554.79 488.199 538.997 517.949C533.915 527.393 626.327 540.143 626.327 540.143L644.153 435.625C644.153 435.625 621.871 412.958 617.336 411.384C607.876 408.236 594.82 408.551 577.619 413.116Z" fill="#393939"/>
<path d="M644.231 435.704C647.437 444.046 655.568 493.708 646.499 505.435C645.482 506.773 651.19 508.898 650.173 515.037C650.017 516.06 648.297 521.018 648.297 521.018L640.948 522.986L624.92 504.333C624.92 504.333 631.409 494.181 639.931 455.694C642.433 444.361 643.528 433.815 644.231 435.704Z" fill="#2A94F4"/>
<path d="M583.561 495.046C583.561 495.046 591.301 515.588 609.987 521.097C613.193 522.042 615.225 525.662 613.662 526.843C611.629 528.338 608.971 528.653 604.28 528.653C594.507 528.653 581.216 525.505 572.068 516.218C558.464 502.523 554.164 496.227 555.572 489.38C556.822 482.375 583.561 495.046 583.561 495.046Z" fill="#FCD2B1"/>
<path d="M552.444 430.273C548.457 437.042 546.189 447.903 546.268 463.486C546.268 475.528 556.275 495.282 557.761 501.343C557.995 502.366 558.621 506.694 558.621 506.694L569.644 518.028L591.77 502.366L585.047 491.583L583.014 491.819C583.014 491.819 581.763 485.838 582.076 483.556C582.388 481.273 575.977 450.185 572.772 430.273C570.974 418.704 556.353 423.583 552.444 430.273Z" fill="#2A94F4"/>
<path d="M572.303 491.347L578.792 489.301L581.45 488.593C581.607 490.481 583.17 491.741 583.17 491.741L578.088 492.37L572.225 494.259L565.344 499.218L572.303 491.347Z" fill="#0E538C"/>
<path d="M608.58 521.019L619.838 517.792C619.838 517.792 623.044 522.278 622.418 523.38C621.793 524.481 622.418 531.093 622.418 531.093L616.946 535.972L612.489 534.398C612.489 534.398 612.176 532.352 613.662 532.194C615.225 531.958 612.645 530.857 611.864 530.384C611.082 529.833 604.592 526.37 608.58 521.019Z" fill="#FCD2B1"/>
<path d="M591.223 412.093C589.972 415.792 591.849 419.963 595.445 421.222L601.856 423.583C605.453 424.921 609.362 422.875 610.613 419.176L616.32 402.176C617.571 398.477 615.695 394.306 612.098 392.968L605.687 390.606C602.091 389.269 598.182 391.315 596.931 395.014L591.223 412.093Z" fill="#FF957E"/>
<path d="M619.213 427.046C618.587 429.486 616.086 430.982 613.74 430.273L594.429 424.685C592.083 423.977 590.676 421.458 591.301 418.94L599.198 389.111C599.823 386.671 602.325 385.176 604.671 385.884L623.982 391.393C626.328 392.102 627.735 394.62 627.109 397.139L619.213 427.046Z" fill="#FCD2B1"/>
<path d="M629.22 394.148C629.376 393.991 627.422 391.787 628.438 387.458C629.767 381.634 625.467 379.273 622.262 379.194C620.385 379.116 614.053 382.185 610.691 383.208C607.329 384.231 607.642 382.894 601.543 381.792C597.478 381.005 596.54 383.287 595.132 386.435C593.725 389.662 593.569 401.94 593.569 401.94C594.116 402.727 594.976 403.356 595.523 402.727C596.07 402.097 598.26 392.259 600.058 389.347C601.778 386.435 608.814 391.079 612.645 393.361C616.398 395.644 619.76 396.037 625.78 394.778C626.484 395.565 627.109 396.431 627.109 396.824C627.109 397.611 625.389 403.199 625.389 403.199C625.389 403.199 628.751 401.074 629.689 399.421C630.158 398.87 630.315 396.194 629.22 394.148Z" fill="#212121"/>
<path d="M597.4 412.722C597.165 413.509 596.383 414.06 595.601 413.824L591.458 412.644C590.676 412.407 590.207 411.542 590.441 410.755L592.552 402.806C592.787 402.019 593.569 401.468 594.35 401.704L598.494 402.884C599.276 403.12 599.745 403.986 599.511 404.773L597.4 412.722Z" fill="#FCD2B1"/>
<path d="M594.819 405.167C594.819 405.167 591.692 416.894 590.676 420.829C589.738 424.37 589.034 432.556 608.189 438.065C619.525 441.292 621.402 432.477 622.184 429.644C622.731 427.44 622.105 420.278 621.245 418.704C621.245 418.625 619.995 423.583 619.995 423.583C619.995 423.583 618.9 418.153 613.505 416.657C604.827 414.139 601.387 418.94 597.634 417.681C594.663 416.657 593.803 410.991 594.819 405.167Z" fill="#212121"/>
<path d="M607.876 423.19L613.818 424.921C614.6 425.157 615.46 424.685 615.616 423.819L615.851 422.954L607.016 420.435L606.782 421.301C606.625 422.167 607.094 422.954 607.876 423.19Z" fill="#FCD2B1"/>
<path d="M702.087 542.426C699.351 550.375 651.19 579.574 635.006 577.843L586.298 580.282C544.938 575.009 525.314 507.954 525.314 507.954C526.956 491.111 567.768 515.509 582.31 523.065C605.296 535.028 619.916 535.657 619.916 535.657C635.319 537.31 653.144 524.875 672.612 524.481C693.956 523.931 706.465 529.912 702.087 542.426Z" fill="#2C2C2C"/>
<path d="M596.227 534.398C596.227 534.319 596.227 534.319 596.227 534.398V532.194L679.961 530.62V532.745V532.824L679.727 533.217C678.71 535.106 676.756 535.421 674.567 535.5L601.7 536.917C599.51 536.995 597.556 536.68 596.461 534.87L596.227 534.398Z" fill="#D3D3D3"/>
<path d="M616.398 534.319C616.398 534.319 616.398 534.398 616.398 534.319L616.164 534.713C615.851 535.185 615.46 535.579 614.991 535.815L602.247 536.051C600.136 536.13 598.26 535.893 597.165 534.398L596.93 534.083C596.93 534.083 596.93 534.083 596.852 534.005V532.981L616.242 532.588L616.398 534.319Z" fill="#D3D3D3"/>
<path d="M627.735 533.532L669.563 532.745V531.25L627.656 532.116L627.735 533.532Z" fill="#D3D3D3"/>
<path d="M616.867 531.722L626.953 488.593C627.188 487.491 628.282 486.546 629.377 486.468L688.171 485.366C689.265 485.366 689.891 486.231 689.656 487.412L679.57 530.542L616.867 531.722Z" fill="#D3D3D3"/>
<path d="M578.948 591.38C584.734 592.403 589.191 585.398 589.191 585.398L604.202 573.12L600.996 564.778L571.756 578.472C571.756 578.472 573.085 590.357 578.948 591.38Z" fill="#FCD2B1"/>
<path d="M589.112 584.926C589.112 584.926 589.112 585.634 588.018 588.861C586.923 592.088 585.516 593.19 584.108 593.662C578.479 595.394 574.492 594.528 561.044 597.204C547.597 599.88 543.531 597.833 539.622 591.38C535.713 584.926 539.778 579.81 546.346 579.338C555.806 578.63 561.123 579.731 566.048 578.944C571.208 578.157 571.521 576.898 574.57 574.931C577.385 573.12 580.043 583.981 577.385 586.5C574.961 588.704 587.158 589.019 589.112 584.926Z" fill="#0B4870"/>
<path d="M586.298 591.144C580.747 592.875 576.681 592.009 563.233 594.685C549.786 597.361 545.72 595.315 541.811 588.861C540.013 585.87 539.935 583.194 540.951 581.148C537.98 583.273 536.964 586.972 539.622 591.38C543.531 597.833 547.597 599.88 561.044 597.204C574.492 594.528 578.557 595.394 584.108 593.662C585.203 593.347 586.298 592.56 587.236 590.75C586.923 590.907 586.61 591.065 586.298 591.144Z" fill="white"/>
<path d="M589.112 585.162C589.112 585.005 589.112 585.005 589.112 585.005C589.112 585.083 589.034 585.162 588.956 585.241C589.034 585.162 589.112 585.162 589.112 585.162Z" fill="#E9D6B8"/>
<path d="M560.106 589.963C559.715 590.12 559.324 589.255 559.168 588.074C558.933 585.634 558.386 583.273 557.604 580.833C557.213 579.653 557.213 578.63 557.682 578.472C558.151 578.315 558.933 579.181 559.246 580.361C560.028 582.722 560.497 585.162 560.732 587.523C560.888 588.704 560.497 589.806 560.106 589.963Z" fill="white"/>
<path d="M564.25 589.176C563.781 589.255 563.39 588.468 563.233 587.366C562.999 585.083 562.452 582.801 561.67 580.597C561.279 579.495 561.279 578.551 561.826 578.472C562.295 578.393 563.077 579.259 563.468 580.361C564.172 582.565 564.719 584.847 564.953 587.051C565.032 588.153 564.719 589.097 564.25 589.176Z" fill="white"/>
<path d="M568.628 589.018C568.159 589.097 567.69 588.231 567.533 587.051C567.143 584.69 566.595 582.407 565.735 580.046C565.344 578.866 565.344 577.921 565.813 577.921C566.361 577.921 567.143 578.787 567.533 579.968C568.394 582.25 568.941 584.611 569.254 586.893C569.41 587.995 569.097 588.94 568.628 589.018Z" fill="white"/>
<path d="M579.965 571.31C579.965 571.31 682.932 527.157 688.796 527.079C708.655 526.921 704.12 547.856 694.034 557.773C682.151 569.421 591.77 590.75 591.77 590.75L579.965 571.31Z" fill="#393939"/>
<path d="M620.776 579.023L592.63 551.162L604.671 538.806L635.318 572.491L620.776 579.023Z" fill="#FCD2B1"/>
<path d="M626.562 557.144C626.562 557.144 555.024 488.75 550.255 486.704C533.915 479.778 523.829 498.588 524.376 505.12C525.158 513.542 597.791 582.014 597.791 582.014L626.562 557.144Z" fill="#393939"/>
<path d="M668.938 581.148C670.579 582.722 670.892 587.523 670.892 587.523C670.892 587.523 647.046 596.968 638.681 597.125C636.491 597.204 632.582 596.259 628.829 595.157C628.204 595 626.719 593.268 626.093 593.111C624.92 592.796 624.686 593.898 623.748 593.583C621.246 592.718 619.369 592.009 619.291 591.852C614.209 580.676 615.929 575.167 615.929 575.167C615.929 575.167 626.875 578.472 624.999 575.875C621.011 570.366 632.504 564.778 635.006 567.69C645.326 579.417 664.09 576.505 668.938 581.148Z" fill="#0B4870"/>
<path d="M670.267 583.509C662.917 586.579 647.515 592.796 644.466 593.032C631.879 593.977 623.122 589.333 617.258 586.579C617.806 588.153 618.431 589.963 619.291 591.852C619.369 592.009 621.167 592.718 623.748 593.583C624.764 593.898 624.998 592.718 626.093 593.111C626.718 593.268 628.126 595 628.829 595.157C632.582 596.259 636.491 597.125 638.681 597.125C647.046 596.968 670.892 587.523 670.892 587.523C670.892 587.523 670.892 585.319 670.267 583.509Z" fill="white"/>
<path d="M653.457 576.269C653.692 576.741 652.754 577.213 651.425 577.528C648.688 578.079 646.03 578.944 643.372 580.046C642.043 580.597 640.87 580.755 640.713 580.282C640.557 579.81 641.417 578.944 642.746 578.394C645.326 577.292 648.063 576.505 650.721 575.954C651.972 575.56 653.223 575.796 653.457 576.269Z" fill="white"/>
<path d="M648.063 574.301C648.297 574.773 647.359 575.403 646.03 575.796C643.372 576.583 640.791 577.685 638.211 579.023C636.96 579.653 635.788 579.889 635.631 579.417C635.475 578.944 636.335 577.921 637.586 577.292C640.088 576.032 642.668 574.931 645.326 574.222C646.655 573.671 647.906 573.829 648.063 574.301Z" fill="white"/>
<path d="M642.902 572.569C643.059 573.042 642.199 573.75 640.948 574.222C638.368 575.245 635.866 576.505 633.442 578C632.269 578.787 631.175 579.023 631.018 578.472C630.862 578 631.644 576.898 632.895 576.111C635.319 574.616 637.82 573.356 640.322 572.412C641.573 572.018 642.746 572.097 642.902 572.569Z" fill="white"/>
</svg>
