<svg width="100" height="100" viewBox="0 0 100 100" fill="none" xmlns="http://www.w3.org/2000/svg">
<path d="M0 100V0H100V100H0Z" fill="#FFD600"/>
<path d="M71.5938 79.8062C73.0354 82.1479 74.6021 84.3917 77.9208 84.3917C80.7083 84.3917 82.1708 83.0062 82.1708 81.0896C82.1708 78.7958 80.6583 77.9812 77.5917 76.6458L75.9104 75.9292C71.0583 73.8708 67.8313 71.2917 67.8313 65.8438C67.8313 60.8229 71.675 57.0021 77.6813 57.0021C81.9583 57.0021 85.0313 58.4833 87.2479 62.3625L82.0104 65.7104C80.8583 63.6521 79.6125 62.8417 77.6813 62.8417C75.7104 62.8417 74.4625 64.0854 74.4625 65.7104C74.4625 67.7187 75.7125 68.5312 78.5979 69.775L80.2792 70.4917C85.9979 72.9271 89.2229 75.4146 89.2229 81.0062C89.2229 87.0312 84.4646 90.3333 78.0771 90.3333C71.8292 90.3333 68.2813 87.1979 66.3063 83.3167L71.5938 79.8062ZM47.4562 79.9771C48.5104 81.8646 50.1125 83.3167 52.4167 83.3167C54.6208 83.3167 55.8896 82.4458 55.8896 79.0604V57H62.8333V80.1271C62.8333 87.1417 58.7646 90.3333 52.8229 90.3333C47.4542 90.3333 43.5792 86.6958 42 83.3167L47.4562 79.9771Z" fill="#000001"/>
</svg>
