<svg width="50" height="50" viewBox="0 0 50 50" fill="none" xmlns="http://www.w3.org/2000/svg">
<path d="M33.8625 16.1376C31.6138 13.8889 28.4392 12.4339 25 12.4339C21.5609 12.4339 18.3863 13.8228 16.1376 16.1376C13.8889 18.3863 12.4339 21.5609 12.4339 25C12.4339 28.4392 13.8889 31.6138 16.1376 33.8625C18.3863 36.1112 21.5609 37.5662 25 37.5662C28.4392 37.5662 31.6138 36.1773 33.8625 33.8625C36.1112 31.6138 37.5662 28.4392 37.5662 25C37.5662 21.5609 36.1773 18.3863 33.8625 16.1376ZM31.4815 31.4815C29.8281 33.135 27.5133 34.127 25 34.127C22.4868 34.127 20.172 33.135 18.5186 31.4815C16.8651 29.8281 15.8731 27.5133 15.8731 25C15.8731 22.4868 16.8651 20.172 18.5186 18.5186C20.172 16.8651 22.4868 15.8731 25 15.8731C27.5133 15.8731 29.8281 16.8651 31.4815 18.5186C33.135 20.172 34.127 22.4868 34.127 25C34.127 27.5133 33.135 29.8281 31.4815 31.4815Z" fill="white"/>
<path d="M48.2804 23.2804H43.1878C42.2619 23.2804 41.4682 24.074 41.4682 25C41.4682 25.9259 42.2619 26.7195 43.1878 26.7195H48.2804C49.2063 26.7195 50 25.9259 50 25C50 24.074 49.2063 23.2804 48.2804 23.2804Z" fill="white"/>
<path d="M25 41.4682C24.074 41.4682 23.2804 42.2619 23.2804 43.1878V48.2804C23.2804 49.2063 24.074 50 25 50C25.9259 50 26.7195 49.2063 26.7195 48.2804V43.1878C26.7195 42.2619 25.9259 41.4682 25 41.4682Z" fill="white"/>
<path d="M42.6588 40.2778L39.0212 36.6402C38.426 35.9789 37.3016 35.9789 36.6402 36.6402C35.9789 37.3016 35.9789 38.3598 36.6402 39.0212L40.2778 42.6587C40.9392 43.3201 41.9974 43.3201 42.6588 42.6587C43.3201 41.9974 43.3201 40.9392 42.6588 40.2778Z" fill="white"/>
<path d="M25 0C24.074 0 23.2804 0.79365 23.2804 1.71958V6.81217C23.2804 7.73809 24.074 8.53174 25 8.53174C25.9259 8.53174 26.7195 7.73809 26.7195 6.81217V1.71958C26.7195 0.79365 25.9259 0 25 0Z" fill="white"/>
<path d="M42.7249 7.34125C42.0635 6.67987 41.0053 6.67987 40.3439 7.34125L36.7064 10.9788C36.045 11.6402 36.045 12.6984 36.7064 13.3598C37.3016 14.0211 38.4259 14.0211 39.0873 13.3598L42.7249 9.7222C43.3862 9.06082 43.3862 8.00262 42.7249 7.34125Z" fill="white"/>
<path d="M6.81217 23.2804H1.71958C0.79365 23.2804 0 24.074 0 25C0 25.9259 0.727513 26.7195 1.71958 26.7195H6.81217C7.73809 26.7195 8.53174 25.9259 8.53174 25C8.53174 24.074 7.73809 23.2804 6.81217 23.2804Z" fill="white"/>
<path d="M13.2936 36.6402C12.6984 35.9789 11.5741 35.9789 10.9127 36.6402L7.27513 40.2778C6.61375 40.9392 6.61375 41.9974 7.27513 42.6587C7.93651 43.3201 8.99471 43.3201 9.65608 42.6587L13.2936 39.0212C13.955 38.3598 13.955 37.3016 13.2936 36.6402Z" fill="white"/>
<path d="M13.2936 10.9788L9.65608 7.34125C8.99471 6.67987 7.93651 6.67987 7.27513 7.34125C6.61375 8.00262 6.61375 9.06082 7.27513 9.7222L10.9127 13.3598C11.5741 14.0211 12.6323 14.0211 13.2936 13.3598C13.955 12.6984 13.955 11.6402 13.2936 10.9788Z" fill="white"/>
</svg>
