<svg width="120" height="100" viewBox="0 0 120 100" fill="none" xmlns="http://www.w3.org/2000/svg">
<path d="M60 0.132996C44.0002 0.132996 33.9998 11.2148 30 33.3777C36 22.2959 42.9998 18.1403 51 20.9109C55.5642 22.4913 58.8267 27.0787 62.438 32.1557C68.3208 40.4272 75.1289 50 90 50C106 50 116 38.9182 120 16.7553C114 27.8371 107 31.9927 99 29.2221C94.4358 27.6417 91.1733 23.0543 87.562 17.9773C81.6792 9.70577 74.8711 0.132996 60 0.132996ZM30 50C14.0002 50 3.99984 61.0818 0 83.2447C6 72.1629 12.9998 68.0073 21 70.7779C25.5642 72.3584 28.8267 76.9457 32.438 82.0227C38.3208 90.2942 45.1289 99.867 60 99.867C75.9998 99.867 86.0002 88.7853 90 66.6224C84 77.7041 77.0002 81.8597 69 79.0891C64.4358 77.5087 61.1733 72.9213 57.562 67.8444C51.6792 59.5728 44.8711 50 30 50Z" fill="url(#paint0_linear)"/>
<defs>
<linearGradient id="paint0_linear" x1="-3.3336" y1="32.0479" x2="114.368" y2="81.0406" gradientUnits="userSpaceOnUse">
<stop stop-color="#2298BD"/>
<stop offset="1" stop-color="#0ED7B5"/>
</linearGradient>
</defs>
</svg>
